<?xml version="1.0" standalone="no"?>
<!DOCTYPE svg PUBLIC "-//W3C//DTD SVG 20010904//EN"
 "http://www.w3.org/TR/2001/REC-SVG-20010904/DTD/svg10.dtd">
<svg version="1.0" xmlns="http://www.w3.org/2000/svg"
 width="6250.000000pt" height="6250.000000pt" viewBox="0 0 6250.000000 6250.000000"
 preserveAspectRatio="xMidYMid meet">

<g transform="translate(0.000000,6250.000000) scale(0.100000,-0.100000)"
fill="#000000" stroke="none">
<path d="M2527 36573 c-456 -692 -854 -1575 -1113 -2473 -194 -668 -302 -1272
-366 -2035 -17 -204 -17 -1032 0 -1225 91 -1022 371 -2001 852 -2975 442 -895
1027 -1685 1717 -2317 301 -277 651 -545 1088 -837 1046 -697 2207 -1157 3371
-1335 739 -113 1453 -122 2159 -26 821 111 1592 358 2437 781 615 307 1202
700 1708 1143 157 137 498 474 634 626 479 534 885 1141 1136 1699 58 129 96
226 77 197 -6 -10 -44 -70 -84 -132 -342 -541 -884 -1129 -1483 -1609 -922
-739 -2005 -1265 -3240 -1574 -577 -145 -907 -191 -1365 -191 -1279 0 -2822
381 -4095 1011 -541 267 -905 524 -1445 1018 -698 639 -1217 1266 -1658 2001
-560 936 -907 1919 -1122 3182 -65 383 -78 544 -79 968 0 448 25 770 95 1235
142 936 465 2056 853 2958 9 20 14 37 11 37 -2 0 -42 -57 -88 -127z"/>
<path d="M32951 35575 c-175 -38 -341 -167 -421 -326 -44 -86 -62 -170 -61
-289 0 -154 34 -256 124 -375 117 -154 314 -245 532 -245 182 0 340 59 462
173 134 125 194 263 195 447 0 123 -12 179 -58 275 -81 171 -246 300 -433 340
-88 18 -253 18 -340 0z"/>
<path d="M37740 35574 c-216 -46 -402 -221 -466 -439 -23 -80 -24 -247 -1
-334 52 -196 204 -354 407 -424 69 -24 106 -31 200 -34 219 -9 373 48 516 191
125 125 174 248 174 433 0 187 -48 303 -179 434 -98 98 -186 148 -310 174 -89
18 -253 18 -341 -1z"/>
<path d="M36255 35534 c-16 -2 -73 -9 -125 -15 -230 -26 -446 -88 -624 -178
-469 -239 -676 -655 -676 -1363 l0 -148 -240 0 -240 0 0 -440 0 -440 240 0
240 0 0 -1690 0 -1690 545 0 545 0 2 1688 3 1687 373 3 372 2 0 440 0 440
-377 0 -376 0 6 173 c10 272 43 385 141 483 46 46 78 67 131 88 81 32 194 56
268 56 29 0 76 3 105 6 l52 7 0 448 0 449 -167 -1 c-93 -1 -181 -4 -198 -5z"/>
<path d="M17620 32250 l0 -2680 535 0 535 0 0 1029 0 1029 588 5 c615 5 677 9
907 56 322 66 597 197 827 396 233 202 404 506 479 853 26 125 37 404 20 552
-24 207 -82 398 -176 578 -75 144 -153 248 -270 360 -261 252 -593 403 -1045
479 -95 15 -216 17 -1252 20 l-1148 4 0 -2681z m2110 1799 c367 -45 578 -209
661 -515 18 -66 22 -107 23 -249 1 -148 -2 -181 -22 -255 -64 -235 -215 -397
-442 -473 -144 -48 -168 -50 -727 -54 l-533 -4 0 780 0 781 478 0 c274 0 514
-4 562 -11z"/>
<path d="M23797 33889 c-406 -31 -779 -187 -1090 -456 -215 -186 -429 -505
-542 -808 -175 -467 -202 -1087 -70 -1601 153 -595 525 -1079 1020 -1327 556
-277 1253 -258 1757 49 169 102 339 251 445 388 l38 49 3 -306 2 -307 545 0
545 0 -2 2128 -3 2127 -542 3 -543 2 0 -302 0 -303 -32 40 c-220 272 -557 488
-896 574 -181 47 -427 66 -635 50z m610 -950 c143 -19 324 -91 457 -182 210
-142 384 -399 451 -662 71 -280 56 -656 -35 -907 -121 -332 -376 -579 -710
-688 -111 -36 -210 -50 -358 -50 -405 1 -767 239 -966 636 -84 169 -124 339
-133 564 -16 403 95 721 337 974 157 163 357 270 582 311 91 16 271 18 375 4z"/>
<path d="M41170 33890 c-351 -23 -646 -109 -926 -270 -540 -311 -875 -821
-986 -1500 -29 -179 -32 -630 -5 -805 75 -500 255 -887 556 -1198 329 -340
728 -535 1226 -598 126 -16 468 -16 600 0 263 32 475 92 680 191 211 103 354
209 537 399 208 215 371 500 458 797 10 34 21 71 25 83 l6 21 -579 0 -579 0
-28 -67 c-130 -307 -351 -471 -694 -512 -489 -60 -888 195 -1045 669 -70 212
-91 378 -83 670 8 300 52 508 147 694 191 373 517 550 947 515 319 -26 572
-197 706 -476 19 -40 37 -81 40 -93 5 -20 9 -20 587 -20 473 0 581 2 577 13
-3 7 -15 48 -27 92 -105 376 -322 718 -600 950 -327 273 -714 414 -1212 445
-167 10 -161 10 -328 0z"/>
<path d="M45650 33889 c-349 -25 -672 -140 -950 -337 -113 -80 -315 -277 -393
-383 -227 -311 -363 -646 -423 -1039 -21 -141 -30 -541 -15 -692 32 -334 106
-601 240 -868 309 -617 845 -992 1510 -1060 279 -28 604 14 847 110 271 107
560 323 708 529 l31 43 3 -311 2 -311 540 0 540 0 0 2130 0 2130 -540 0 -540
0 -2 -302 -3 -301 -71 84 c-134 157 -338 311 -549 415 -194 95 -382 143 -630
164 -139 11 -149 11 -305 -1z m700 -969 c444 -116 751 -464 836 -945 24 -137
24 -413 -1 -550 -81 -463 -361 -796 -780 -928 -183 -57 -440 -63 -610 -13
-313 92 -567 313 -715 622 -83 173 -122 368 -122 609 0 366 93 633 306 877
151 174 403 313 631 348 107 16 359 5 455 -20z"/>
<path d="M29666 33879 c-196 -21 -391 -76 -562 -159 -158 -77 -276 -161 -408
-292 -66 -65 -121 -118 -123 -118 -2 0 -3 117 -3 260 l0 260 -535 0 -535 0 0
-2130 0 -2130 535 0 535 0 0 1173 c0 644 5 1228 10 1298 22 303 109 520 274
683 175 172 383 249 676 249 198 1 324 -25 465 -96 83 -41 130 -75 203 -147
120 -117 200 -268 250 -469 l26 -106 3 -1292 4 -1293 540 0 540 0 -4 1358 c-3
938 -8 1383 -16 1442 -46 344 -138 610 -290 836 -181 271 -488 498 -806 597
-232 72 -535 102 -779 76z"/>
<path d="M32580 31700 l0 -2130 535 0 535 0 0 2130 0 2130 -535 0 -535 0 0
-2130z"/>
<path d="M37370 31700 l0 -2130 535 0 535 0 0 2130 0 2130 -535 0 -535 0 0
-2130z"/>
<path d="M12714 33735 l-25 -25 3 -3854 c2 -2120 6 -3858 10 -3861 21 -22 355
145 668 334 356 214 677 444 963 689 l97 84 0 3288 c0 2374 -3 3296 -11 3319
-6 17 -19 36 -29 41 -12 6 -322 10 -835 10 l-816 0 -25 -25z"/>
<path d="M10350 31433 l-22 -28 7 -3025 c4 -1664 9 -3029 12 -3033 13 -22 441
46 808 129 273 62 599 150 815 221 l85 28 3 2846 2 2845 -20 22 -21 22 -824 0
-824 0 -21 -27z"/>
<path d="M8137 29679 c-10 -6 -23 -23 -28 -37 -8 -19 -8 -679 -3 -2094 l7
-2067 66 -15 c244 -55 1050 -115 1574 -116 l87 0 0 2129 c0 1528 -3 2137 -11
2160 -6 17 -19 36 -29 41 -26 14 -1639 13 -1663 -1z"/>
<path d="M5985 28221 c-52 -22 -50 21 -53 -916 l-2 -873 31 -26 c125 -105 807
-451 1198 -607 131 -53 424 -153 479 -164 l32 -7 -2 1276 -3 1275 -23 23 -23
23 -807 2 c-444 1 -816 -2 -827 -6z"/>
<path d="M21780 27533 c-55 -21 -99 -79 -115 -150 l-7 -33 56 0 c43 0 56 3 56
15 0 24 38 55 66 55 14 0 54 -16 88 -35 130 -72 239 -30 281 108 l14 47 -52 0
c-47 0 -54 -3 -69 -30 -27 -47 -61 -49 -139 -7 -66 36 -133 47 -179 30z"/>
<path d="M31960 27519 c-51 -32 -77 -70 -94 -141 -6 -28 -6 -28 49 -28 42 0
55 3 55 15 0 24 38 55 66 55 14 0 54 -16 88 -35 137 -76 254 -25 290 128 6 27
6 27 -49 27 -39 0 -55 -4 -55 -13 0 -21 -44 -57 -69 -57 -13 0 -51 16 -85 35
-76 43 -141 47 -196 14z"/>
<path d="M17825 27263 c-162 -21 -316 -116 -404 -249 -157 -234 -128 -559 68
-754 146 -145 362 -202 565 -150 109 28 170 63 256 150 118 117 170 238 170
394 l0 76 -320 0 -320 0 0 -75 0 -75 219 0 219 0 -12 -47 c-53 -198 -230 -304
-438 -263 -171 33 -279 151 -309 338 -39 239 100 446 325 482 143 23 271 -24
348 -129 l30 -41 109 0 c60 0 109 2 109 5 0 3 -10 25 -21 48 -103 205 -344
323 -594 290z"/>
<path d="M19797 27259 c-118 -23 -218 -95 -260 -188 -17 -36 -22 -65 -22 -136
0 -105 18 -148 85 -209 51 -46 98 -66 254 -112 150 -44 193 -63 230 -102 60
-64 42 -178 -36 -229 -55 -37 -166 -44 -230 -15 -51 22 -95 73 -104 120 l-6
32 -99 0 -99 0 0 -37 c0 -53 40 -134 90 -182 158 -153 482 -148 624 9 66 73
81 114 81 220 0 110 -17 152 -84 213 -53 48 -76 59 -216 102 -177 54 -207 65
-244 93 -71 53 -79 153 -16 217 95 94 300 55 336 -66 l12 -40 101 3 101 3 -2
30 c-14 191 -249 321 -496 274z"/>
<path d="M23025 27254 c-216 -48 -390 -216 -440 -425 -19 -83 -19 -228 0 -304
53 -207 229 -377 434 -421 211 -44 407 10 552 155 121 121 169 241 169 424 0
162 -47 287 -149 398 -137 150 -361 219 -566 173z m297 -186 c142 -66 228
-211 228 -385 0 -179 -83 -329 -215 -389 -206 -95 -437 -18 -528 174 -98 209
-33 477 140 579 73 42 120 53 223 50 78 -2 105 -8 152 -29z"/>
<path d="M27215 27264 c-105 -17 -218 -66 -302 -134 -68 -54 -147 -172 -175
-263 -31 -96 -32 -283 -4 -367 82 -244 275 -393 527 -407 280 -16 507 133 595
392 23 68 27 97 27 190 1 180 -47 301 -167 421 -74 74 -148 119 -246 148 -56
17 -201 28 -255 20z m255 -201 c76 -37 94 -52 143 -116 57 -75 80 -165 75
-290 -6 -122 -30 -194 -92 -270 -133 -163 -402 -180 -561 -35 -178 162 -175
510 6 662 76 64 148 86 274 83 78 -2 99 -7 155 -34z"/>
<path d="M30835 27263 c-182 -24 -357 -147 -435 -307 -44 -88 -70 -190 -70
-274 0 -66 25 -188 51 -249 69 -162 230 -292 404 -327 l60 -13 3 -91 3 -92 59
0 c91 0 130 -20 130 -66 0 -45 -32 -58 -160 -62 l-120 -4 0 -54 0 -54 147 0
c165 0 213 14 255 73 30 42 36 131 13 181 -21 45 -84 83 -148 92 -45 6 -47 8
-47 40 0 31 3 34 38 39 130 21 251 83 332 172 47 51 100 138 100 163 0 6 -41
10 -109 10 l-108 0 -28 -45 c-89 -140 -296 -182 -472 -95 -74 37 -124 90 -167
180 -30 63 -31 69 -31 200 0 120 3 141 23 185 71 155 194 235 361 235 125 0
220 -46 283 -135 l32 -45 108 0 c80 0 108 3 108 13 0 27 -67 125 -121 179
-118 115 -314 175 -494 151z"/>
<path d="M33275 27264 c-105 -17 -218 -66 -302 -134 -68 -54 -147 -172 -175
-263 -31 -96 -32 -283 -4 -367 82 -244 275 -393 527 -407 280 -16 507 133 595
392 23 68 27 97 27 190 1 180 -47 301 -167 421 -74 74 -148 119 -246 148 -56
17 -201 28 -255 20z m255 -201 c76 -37 94 -52 143 -116 57 -75 80 -165 75
-290 -6 -122 -30 -194 -92 -270 -133 -163 -402 -180 -561 -35 -178 162 -175
510 6 662 76 64 148 86 274 83 78 -2 99 -7 155 -34z"/>
<path d="M60693 27256 c-168 -39 -262 -142 -271 -297 -6 -104 14 -161 76 -221
61 -59 80 -68 263 -124 177 -53 197 -62 232 -104 69 -81 29 -209 -75 -247 -42
-15 -148 -16 -185 -2 -54 20 -113 92 -113 139 0 19 -6 20 -105 20 l-105 0 6
-42 c15 -104 78 -189 175 -237 81 -41 156 -54 265 -49 106 6 192 40 262 103
117 105 135 308 37 422 -47 55 -144 102 -304 148 -143 42 -165 52 -206 95 -26
27 -30 38 -30 90 0 103 60 154 180 154 97 0 158 -34 188 -105 l21 -49 97 0
c54 0 100 3 102 8 9 15 -24 118 -51 157 -37 52 -99 99 -167 124 -75 28 -209
35 -292 17z"/>
<path d="M18660 26675 l0 -575 320 0 320 0 0 75 0 75 -222 2 -223 3 -3 178 -2
177 200 0 200 0 0 75 0 75 -200 0 -200 0 0 170 0 170 225 0 225 0 0 75 0 75
-320 0 -320 0 0 -575z"/>
<path d="M20480 27175 l0 -75 155 0 155 0 0 -500 0 -500 95 0 95 0 0 500 0
500 150 0 150 0 0 75 0 75 -400 0 -400 0 0 -75z"/>
<path d="M21809 27223 c-24 -62 -399 -1114 -399 -1118 0 -3 44 -5 98 -5 l97 0
41 118 40 117 241 3 241 2 42 -120 43 -120 98 0 c55 0 99 1 99 3 0 1 -92 259
-204 572 l-204 570 -111 3 -111 3 -11 -28z m217 -473 l91 -260 -188 0 -188 0
60 173 c34 94 75 211 91 260 16 48 33 87 36 87 4 0 48 -117 98 -260z"/>
<path d="M24730 26675 l0 -575 95 0 95 0 0 235 0 235 145 0 c154 0 226 11 290
43 73 36 113 76 147 145 30 60 33 75 33 157 0 75 -4 98 -25 140 -29 60 -85
117 -142 146 -84 43 -130 49 -390 49 l-248 0 0 -575z m496 410 c83 -24 118
-76 118 -175 0 -81 -26 -130 -88 -162 -35 -19 -61 -23 -188 -26 l-148 -4 0
191 0 191 128 0 c84 0 146 -5 178 -15z"/>
<path d="M25720 26676 l0 -576 95 0 95 0 0 230 0 230 74 0 73 0 130 -227 131
-228 112 -3 c88 -2 111 0 107 10 -2 7 -65 114 -140 238 l-135 224 56 23 c74
30 120 69 159 133 110 182 33 413 -165 492 -53 21 -74 23 -324 26 l-268 3 0
-575z m483 413 c46 -12 100 -58 117 -99 7 -18 11 -58 8 -98 -3 -56 -9 -76 -30
-104 -46 -60 -84 -72 -245 -76 l-143 -4 0 196 0 196 128 0 c70 0 144 -5 165
-11z"/>
<path d="M28070 26675 l0 -577 263 5 c207 3 274 8 321 22 134 38 244 114 310
214 61 92 87 174 93 297 15 283 -122 498 -372 581 -77 26 -89 27 -347 31
l-268 3 0 -576z m481 415 c80 -15 172 -64 218 -116 106 -120 129 -360 51 -520
-72 -147 -204 -204 -472 -204 l-88 0 0 425 0 425 119 0 c65 0 143 -5 172 -10z"/>
<path d="M29252 26822 l3 -428 38 -76 c57 -117 152 -189 285 -217 112 -23 263
-6 354 40 61 31 141 111 170 171 43 88 48 145 48 555 l0 383 -95 0 -95 0 0
-391 c0 -254 -4 -406 -11 -434 -15 -57 -76 -128 -131 -150 -28 -11 -71 -17
-120 -17 -130 -1 -219 57 -248 161 -6 21 -10 198 -10 434 l0 397 -95 0 -96 0
3 -428z"/>
<path d="M32015 27233 c-4 -10 -94 -261 -200 -558 -106 -297 -197 -548 -200
-557 -7 -16 2 -18 93 -18 l100 0 36 108 c20 59 40 113 44 120 7 9 63 12 247
10 l238 -3 41 -117 41 -118 97 0 c54 0 98 3 98 8 0 4 -92 261 -203 572 l-202
565 -112 3 c-98 2 -111 1 -118 -15z m209 -741 c-52 -1 -136 -1 -187 0 l-93 3
92 260 c51 143 93 262 94 265 1 3 43 -114 94 -260 l94 -265 -94 -3z"/>
<path d="M34560 26675 l0 -575 320 0 320 0 0 75 0 75 -222 2 -223 3 -3 178 -2
177 200 0 200 0 0 75 0 75 -200 0 -200 0 0 170 0 170 225 0 225 0 0 75 0 75
-320 0 -320 0 0 -575z"/>
<path d="M35870 26676 l0 -576 95 0 95 0 0 230 0 231 72 -3 72 -3 131 -227
130 -228 113 0 114 0 -20 33 c-52 85 -262 440 -262 442 0 2 24 11 53 21 74 27
158 111 186 187 28 76 28 177 1 250 -30 79 -79 130 -167 174 l-77 38 -268 3
-268 3 0 -575z m475 413 c57 -16 95 -46 116 -93 33 -73 21 -164 -30 -219 -49
-53 -74 -61 -228 -65 l-143 -4 0 196 0 196 123 0 c67 0 140 -5 162 -11z"/>
<path d="M36910 26675 l0 -575 320 0 320 0 0 75 0 75 -222 2 -223 3 -3 178 -2
177 200 0 200 0 0 75 0 75 -200 0 -200 0 0 170 0 170 225 0 225 0 0 75 0 75
-320 0 -320 0 0 -575z"/>
<path d="M37780 26675 l0 -575 95 0 95 0 2 428 3 427 284 -427 284 -428 93 0
94 0 0 575 0 575 -95 0 -95 0 -2 -422 -3 -422 -279 422 -278 422 -99 0 -99 0
0 -575z"/>
<path d="M38920 27175 l0 -75 155 0 155 0 0 -500 0 -500 95 0 95 0 0 500 0
500 155 0 155 0 0 75 0 75 -405 0 -405 0 0 -75z"/>
<path d="M40255 27233 c-4 -10 -94 -261 -200 -558 -106 -297 -197 -548 -200
-557 -7 -16 2 -18 93 -18 l100 0 36 108 c20 59 40 113 44 120 7 9 63 12 247
10 l238 -3 41 -117 41 -118 97 0 c54 0 98 3 98 8 0 4 -92 261 -203 572 l-202
565 -112 3 c-98 2 -111 1 -118 -15z m209 -741 c-52 -1 -136 -1 -187 0 l-93 3
92 260 c51 143 93 262 94 265 1 3 43 -114 94 -260 l94 -265 -94 -3z"/>
<path d="M41070 26675 l0 -576 288 3 c322 4 348 9 438 77 73 55 106 115 112
205 8 131 -50 237 -159 289 l-50 23 41 19 c51 23 113 90 131 141 17 50 17 148
0 198 -20 59 -91 129 -164 162 l-62 29 -287 3 -288 3 0 -576z m502 415 c45
-13 96 -54 110 -89 14 -38 11 -116 -6 -149 -9 -17 -32 -41 -53 -54 -35 -21
-51 -23 -200 -26 l-163 -4 0 166 0 166 138 0 c75 0 154 -5 174 -10z m55 -501
c68 -33 88 -69 88 -161 0 -74 -1 -78 -34 -112 -51 -53 -85 -60 -261 -61 l-155
0 -3 178 -2 177 162 0 c143 0 167 -2 205 -21z"/>
<path d="M42120 26675 l0 -575 95 0 95 0 0 575 0 575 -95 0 -95 0 0 -575z"/>
<path d="M42560 26675 l0 -575 290 0 290 0 0 75 0 75 -195 0 -195 0 0 500 0
500 -95 0 -95 0 0 -575z"/>
<path d="M43290 26675 l0 -575 95 0 95 0 0 575 0 575 -95 0 -95 0 0 -575z"/>
<path d="M43730 26675 l0 -577 263 5 c207 3 274 8 321 22 134 38 244 114 310
214 61 92 87 174 93 297 15 283 -122 498 -372 581 -77 26 -89 27 -347 31
l-268 3 0 -576z m481 415 c80 -15 172 -64 218 -116 106 -120 129 -360 51 -520
-72 -147 -204 -204 -472 -204 l-88 0 0 425 0 425 119 0 c65 0 143 -5 172 -10z"/>
<path d="M45245 27233 c-4 -10 -94 -261 -200 -558 -106 -297 -197 -548 -200
-557 -7 -16 2 -18 93 -18 l100 0 36 108 c20 59 40 113 44 120 7 9 63 12 247
10 l238 -3 41 -117 41 -118 97 0 c54 0 98 3 98 8 0 4 -92 261 -203 572 l-202
565 -112 3 c-98 2 -111 1 -118 -15z m209 -741 c-52 -1 -136 -1 -187 0 l-93 3
92 260 c51 143 93 262 94 265 1 3 43 -114 94 -260 l94 -265 -94 -3z"/>
<path d="M46060 26674 l0 -576 263 4 c288 5 324 11 447 71 133 65 241 211 271
365 18 96 7 271 -23 352 -50 137 -137 233 -265 296 -113 55 -175 64 -450 64
l-243 0 0 -576z m486 415 c195 -36 314 -193 314 -414 0 -182 -77 -318 -215
-381 -62 -29 -194 -46 -311 -42 l-79 3 -3 423 -2 422 118 0 c65 0 145 -5 178
-11z"/>
<path d="M47240 26675 l0 -575 320 0 320 0 0 75 0 75 -225 0 -225 0 0 180 0
180 200 0 200 0 0 75 0 75 -200 0 -200 0 0 170 0 170 225 0 225 0 0 75 0 75
-320 0 -320 0 0 -575z"/>
<path d="M48540 26676 l0 -576 95 0 95 0 0 234 0 234 173 4 c204 5 254 19 341
99 75 68 100 129 100 239 0 110 -25 171 -100 239 -96 88 -126 95 -436 99
l-268 3 0 -575z m523 400 c60 -30 81 -69 85 -156 3 -65 1 -79 -20 -109 -51
-76 -96 -90 -275 -91 l-123 0 0 191 0 191 148 -4 c118 -3 154 -7 185 -22z"/>
<path d="M49668 26678 l-205 -573 95 -3 c65 -2 98 1 103 9 4 6 24 61 44 120
l37 109 241 -2 242 -3 41 -115 41 -115 97 -3 c53 -1 96 1 96 5 0 4 -91 263
-202 576 l-202 567 -112 0 -111 0 -205 -572z m411 77 c50 -142 91 -260 91
-262 0 -2 -83 -3 -185 -3 -102 0 -185 4 -185 8 0 5 41 122 90 262 50 140 90
256 90 259 0 16 18 -33 99 -264z"/>
<path d="M50690 26676 l0 -576 95 0 95 0 0 230 0 231 72 -3 72 -3 131 -227
130 -228 113 0 114 0 -20 33 c-52 85 -262 440 -262 442 0 2 24 11 53 21 74 27
158 111 186 187 28 76 28 177 1 250 -30 79 -79 130 -167 174 l-77 38 -268 3
-268 3 0 -575z m475 413 c57 -16 95 -46 116 -93 33 -73 21 -164 -30 -219 -49
-53 -74 -61 -228 -65 l-143 -4 0 196 0 196 123 0 c67 0 140 -5 162 -11z"/>
<path d="M52069 27223 c-24 -62 -399 -1114 -399 -1118 0 -3 44 -5 98 -5 l97 0
41 118 40 117 241 3 241 2 42 -120 43 -120 98 0 c55 0 99 1 99 3 0 1 -92 259
-204 572 l-204 570 -111 3 -111 3 -11 -28z m217 -473 l91 -260 -188 0 -188 0
60 173 c34 94 75 211 91 260 16 48 33 87 36 87 4 0 48 -117 98 -260z"/>
<path d="M53320 26676 l0 -576 95 0 95 0 0 234 0 234 173 4 c204 5 254 19 341
99 75 68 100 129 100 239 0 110 -25 171 -100 239 -96 88 -126 95 -436 99
l-268 3 0 -575z m523 400 c60 -30 81 -69 85 -156 3 -65 1 -79 -20 -109 -51
-76 -96 -90 -275 -91 l-123 0 0 191 0 191 148 -4 c118 -3 154 -7 185 -22z"/>
<path d="M54448 26678 l-205 -573 95 -3 c65 -2 98 1 103 9 4 6 24 61 44 120
l37 109 241 -2 242 -3 41 -115 41 -115 97 -3 c53 -1 96 1 96 5 0 4 -91 263
-202 576 l-202 567 -112 0 -111 0 -205 -572z m411 77 c50 -142 91 -260 91
-262 0 -2 -83 -3 -185 -3 -102 0 -185 4 -185 8 0 5 41 122 90 262 50 140 90
256 90 259 0 16 18 -33 99 -264z"/>
<path d="M55470 26674 l0 -576 258 4 c282 5 321 11 442 70 42 20 88 54 130 97
107 108 153 230 153 406 -1 235 -105 416 -293 508 -116 57 -180 67 -452 67
l-238 0 0 -576z m494 411 c85 -18 141 -50 199 -115 73 -81 91 -140 91 -295 0
-157 -18 -215 -94 -298 -84 -92 -194 -126 -407 -127 l-93 0 0 425 0 425 118 0
c64 0 148 -7 186 -15z"/>
<path d="M56782 26682 c-111 -312 -202 -571 -202 -575 0 -4 43 -6 96 -5 l96 3
42 115 41 115 237 3 237 2 14 -27 c8 -16 26 -64 41 -108 14 -44 30 -86 34 -93
6 -9 35 -12 104 -10 l96 3 -147 410 c-81 226 -173 483 -205 573 l-58 162 -112
0 -111 0 -203 -568z m412 67 c47 -135 86 -249 86 -252 0 -4 -84 -7 -186 -7
-145 0 -185 3 -182 13 3 6 45 126 94 264 49 139 92 247 95 240 4 -6 46 -123
93 -258z"/>
<path d="M57800 26675 l0 -575 95 0 95 0 0 230 0 230 73 0 72 0 130 -228 131
-227 112 -3 c62 -1 112 -1 112 2 0 3 -58 102 -130 221 -71 119 -134 224 -140
234 -8 16 -2 21 50 40 178 65 257 289 166 469 -41 81 -133 147 -238 172 -24 5
-152 10 -285 10 l-243 0 0 -575z m474 415 c85 -19 129 -74 134 -168 5 -87 -24
-145 -89 -182 -40 -22 -57 -25 -186 -28 l-143 -4 0 196 0 196 123 0 c67 0 140
-5 161 -10z"/>
<path d="M58850 26675 l0 -575 95 0 95 0 0 575 0 575 -95 0 -95 0 0 -575z"/>
<path d="M59625 27233 c-4 -10 -94 -261 -200 -558 -106 -297 -197 -548 -200
-557 -7 -16 2 -18 93 -18 l100 0 36 108 c20 59 40 113 44 120 7 9 63 12 247
10 l238 -3 41 -117 41 -118 97 0 c54 0 98 3 98 8 0 4 -92 261 -203 572 l-202
565 -112 3 c-98 2 -111 1 -118 -15z m209 -741 c-52 -1 -136 -1 -187 0 l-93 3
92 260 c51 143 93 262 94 265 1 3 43 -114 94 -260 l94 -265 -94 -3z"/>
<path d="M23906 26228 c-15 -57 -42 -160 -60 -230 l-32 -128 61 0 61 0 94 213
c51 116 95 220 98 230 4 15 -5 17 -96 17 l-99 0 -27 -102z"/>
</g>
</svg>
