<svg xmlns="http://www.w3.org/2000/svg" width="1024" height="1024" viewBox="0 0 1024 1024">
<g>
<path d="M 452.02 595.49 C447.60,597.77 445.14,597.34 441.40,593.60 C437.64,589.84 437.10,586.64 439.46,582.07 C441.18,578.74 442.77,578.00 448.13,578.00 C453.40,578.00 457.00,581.45 457.00,586.52 C457.00,591.18 455.65,593.61 452.02,595.49 ZM 386.75 593.45 C382.66,598.09 376.23,597.65 372.14,592.45 C369.76,589.42 369.41,585.97 371.16,582.68 C373.03,579.18 375.19,578.07 380.18,578.03 C384.06,578.01 385.21,578.45 386.93,580.63 C389.76,584.23 389.68,590.12 386.75,593.45 ZM 553.75 593.45 C547.99,599.99 537.55,595.82 537.55,586.98 C537.55,581.24 540.96,578.00 547.00,578.00 C550.57,578.00 552.16,578.54 553.83,580.31 C556.83,583.51 556.79,589.99 553.75,593.45 ZM 473.69 593.57 C471.93,595.62 470.22,596.37 466.44,596.72 C463.72,596.98 461.16,596.85 460.75,596.43 C460.34,596.01 460.00,591.69 460.00,586.83 L 460.00 578.00 L 465.55 578.00 C470.10,578.00 471.53,578.44 473.55,580.45 C476.85,583.76 476.92,589.82 473.69,593.57 ZM 765.45 595.58 C761.89,597.07 756.80,597.46 755.67,596.33 C755.30,595.97 755.00,591.69 755.00,586.83 L 755.00 578.00 L 760.55 578.00 C767.50,578.00 771.00,580.86 771.00,586.52 C771.00,591.42 769.48,593.90 765.45,595.58 ZM 919.45 595.58 C915.89,597.07 910.80,597.46 909.67,596.33 C909.30,595.97 909.00,591.69 909.00,586.83 L 909.00 578.00 L 914.55 578.00 C921.50,578.00 925.00,580.86 925.00,586.52 C925.00,591.42 923.48,593.90 919.45,595.58 ZM 727.36 595.62 C723.88,597.08 718.79,597.45 717.67,596.33 C717.30,595.97 717.00,591.69 717.00,586.83 L 717.00 578.00 L 722.28 578.00 C728.74,578.00 731.70,579.88 732.57,584.55 C733.50,589.47 731.39,593.94 727.36,595.62 ZM 685.47 595.03 C683.69,596.50 674.86,597.56 673.75,596.43 C673.34,596.01 673.00,591.69 673.00,586.83 L 673.00 578.00 L 678.43 578.00 C682.03,578.00 684.39,578.53 685.43,579.57 C687.37,581.51 687.38,582.02 685.52,584.67 C684.21,586.54 684.21,586.93 685.52,588.02 C687.44,589.61 687.42,593.41 685.47,595.03 ZM 950.00 593.00 C950.00,596.75 949.21,597.88 947.67,596.33 C947.30,595.97 947.00,591.67 947.00,586.78 L 947.00 577.90 L 952.73 578.20 C957.64,578.46 958.62,578.84 959.66,580.94 C960.91,583.45 960.01,586.63 957.60,588.23 C956.83,588.74 957.03,589.90 958.25,592.06 C961.74,598.25 959.37,599.02 955.38,593.00 C953.93,590.80 952.12,589.00 951.37,589.00 C950.44,589.00 950.00,590.28 950.00,593.00 ZM 591.00 592.44 C591.00,595.81 589.92,597.58 588.64,596.31 C588.29,595.95 588.00,591.69 588.00,586.83 L 588.00 578.00 L 593.30 578.00 C596.22,578.00 599.14,578.54 599.80,579.20 C601.63,581.03 601.23,585.48 599.07,587.44 C597.18,589.15 597.18,589.24 599.02,592.27 C600.83,595.25 600.83,597.00 599.00,597.00 C598.52,597.00 597.12,595.20 595.88,593.00 C593.07,588.01 591.00,587.77 591.00,592.44 ZM 424.81 592.67 C424.64,594.69 423.94,596.53 423.25,596.76 C422.31,597.07 422.00,594.80 422.00,587.58 L 422.00 578.00 L 426.93 578.00 C434.48,578.00 437.49,582.51 432.95,587.05 L 430.90 589.10 L 432.98 592.47 C434.48,594.90 434.74,596.04 433.90,596.56 C432.69,597.31 429.51,593.92 428.45,590.75 C427.40,587.59 425.14,588.78 424.81,592.67 ZM 833.81 592.67 C833.64,594.69 832.94,596.53 832.25,596.76 C831.31,597.07 831.00,594.80 831.00,587.58 L 831.00 578.00 L 835.93 578.00 C843.48,578.00 846.49,582.51 841.95,587.05 L 839.90 589.10 L 841.98 592.47 C843.48,594.90 843.74,596.04 842.90,596.56 C841.69,597.31 838.51,593.92 837.45,590.75 C836.40,587.59 834.14,588.78 833.81,592.67 ZM 738.71 595.00 C738.20,596.96 736.91,597.58 735.75,596.42 C735.44,596.10 736.60,591.83 738.34,586.93 C740.90,579.70 741.88,578.01 743.52,578.00 C745.16,578.00 746.13,579.68 748.70,586.91 C750.43,591.80 751.59,596.08 751.26,596.41 C750.15,597.52 749.14,597.00 748.50,595.00 C747.99,593.41 746.99,593.00 743.55,593.00 C740.07,593.00 739.13,593.39 738.71,595.00 ZM 814.50 595.00 C813.91,596.85 811.00,597.91 811.00,596.27 C811.00,595.87 812.42,591.57 814.15,586.72 C816.81,579.28 817.62,577.95 819.31,578.20 C820.83,578.43 822.10,580.62 824.55,587.26 C826.33,592.07 827.39,596.26 826.89,596.56 C825.63,597.35 824.00,596.15 824.00,594.44 C824.00,593.40 822.76,593.00 819.57,593.00 C816.01,593.00 815.01,593.40 814.50,595.00 ZM 850.50 595.00 C849.86,597.00 848.85,597.52 847.74,596.41 C847.42,596.08 848.54,591.81 850.25,586.91 C852.81,579.53 853.70,578.00 855.44,578.00 C857.16,578.00 858.02,579.44 860.33,586.25 C861.87,590.79 863.13,594.94 863.14,595.47 C863.16,597.45 860.85,597.14 860.32,595.11 C859.86,593.38 859.00,593.00 855.45,593.00 C852.01,593.00 851.01,593.41 850.50,595.00 ZM 354.71 595.00 C354.20,596.93 352.91,597.58 351.79,596.46 C351.49,596.16 352.65,591.88 354.37,586.96 C356.95,579.58 357.86,578.01 359.58,578.01 C361.30,578.00 362.19,579.55 364.78,586.97 C367.69,595.35 367.70,599.69 364.79,595.04 C362.98,592.13 355.47,592.10 354.71,595.00 ZM 892.71 595.00 C892.20,596.93 890.91,597.58 889.79,596.46 C889.49,596.16 890.65,591.88 892.37,586.96 C894.95,579.58 895.86,578.01 897.58,578.01 C899.30,578.00 900.19,579.55 902.78,586.97 C905.69,595.35 905.70,599.69 902.79,595.04 C900.98,592.13 893.47,592.10 892.71,595.00 ZM 521.71 595.00 C521.20,596.93 519.91,597.58 518.79,596.46 C518.49,596.16 519.70,592.00 521.47,587.21 C523.91,580.61 525.17,578.43 526.69,578.20 C528.38,577.95 529.20,579.28 531.87,586.62 C533.87,592.10 534.70,595.70 534.11,596.29 C533.52,596.88 532.67,596.45 531.84,595.12 C529.98,592.14 522.48,592.05 521.71,595.00 ZM 974.00 595.00 C972.91,597.03 971.00,597.74 971.00,596.10 C971.00,595.61 972.42,591.31 974.15,586.55 C976.81,579.26 977.62,577.95 979.32,578.20 C980.86,578.43 982.04,580.52 984.40,587.18 C987.39,595.63 987.32,599.79 984.27,595.25 C982.23,592.21 975.58,592.05 974.00,595.00 ZM 656.71 595.00 C656.21,596.93 654.91,597.58 653.79,596.46 C653.49,596.16 654.72,592.00 656.52,587.21 C661.07,575.10 662.64,575.01 666.87,586.62 C668.87,592.10 669.70,595.70 669.11,596.29 C668.52,596.88 667.67,596.45 666.84,595.12 C664.98,592.14 657.48,592.05 656.71,595.00 ZM 930.71 595.00 C930.07,597.46 927.98,597.66 928.06,595.25 C928.09,594.29 929.38,590.12 930.93,586.00 C932.99,580.50 934.27,578.42 935.72,578.20 C937.37,577.95 938.22,579.33 940.87,586.62 C942.87,592.10 943.70,595.70 943.11,596.29 C942.52,596.88 941.67,596.45 940.84,595.12 C938.98,592.14 931.48,592.05 930.71,595.00 ZM 622.50 590.17 C622.50,595.83 621.46,598.13 619.69,596.35 C619.31,595.98 619.00,591.69 619.00,586.83 C619.00,578.67 619.15,578.00 621.00,578.00 C622.35,578.00 624.19,579.92 626.74,584.00 C628.81,587.30 630.83,590.00 631.25,590.00 C631.66,590.00 632.00,587.30 632.00,584.00 C632.00,579.27 632.33,578.00 633.54,578.00 C634.83,578.00 635.03,579.46 634.79,587.17 C634.61,592.75 634.07,596.48 633.39,596.71 C632.78,596.91 630.37,594.13 628.02,590.54 C625.68,586.94 623.48,584.00 623.13,584.00 C622.78,584.00 622.50,586.78 622.50,590.17 ZM 298.02 595.49 C293.38,597.89 289.67,596.94 286.14,592.45 C283.28,588.82 283.44,584.82 286.59,581.08 C288.81,578.44 289.85,578.00 293.93,578.00 C297.34,578.00 299.18,578.54 300.41,579.90 C302.82,582.57 300.83,583.38 297.10,581.25 C294.30,579.66 293.78,579.64 291.27,581.03 C287.19,583.31 286.10,587.32 288.66,590.75 C291.34,594.37 295.20,594.80 298.19,591.81 L 300.50 589.50 L 296.75 589.19 C294.30,588.99 293.00,588.38 293.00,587.44 C293.00,586.38 294.32,586.00 298.00,586.00 C302.39,586.00 303.00,586.25 303.00,588.07 C303.00,591.21 301.25,593.82 298.02,595.49 ZM 877.00 592.44 C877.00,595.81 875.92,597.58 874.64,596.31 C874.29,595.95 874.00,591.69 874.00,586.83 L 874.00 578.00 L 879.30 578.00 C885.27,578.00 887.00,579.16 887.00,583.14 C887.00,586.41 883.80,589.00 879.78,589.00 C877.28,589.00 877.00,589.35 877.00,592.44 ZM 509.42 603.39 C507.09,604.29 505.20,604.13 504.50,603.00 C504.16,602.45 504.78,602.00 505.88,602.00 C506.98,602.00 508.16,601.55 508.50,601.00 C508.84,600.45 508.42,600.00 507.56,600.00 C506.70,600.00 506.00,599.37 506.00,598.60 C506.00,597.83 504.42,596.26 502.48,595.12 C493.43,589.78 496.86,578.00 507.48,578.00 C510.35,578.00 512.24,578.61 513.41,579.90 C515.69,582.42 513.75,583.64 510.78,581.56 C507.86,579.51 505.73,579.59 502.95,581.84 C500.21,584.06 500.03,589.27 502.59,592.10 C504.65,594.37 509.26,594.59 511.00,592.50 C512.37,590.84 515.00,590.47 515.00,591.93 C515.00,592.44 513.54,594.01 511.75,595.42 C509.96,596.83 509.06,597.98 509.75,597.99 C511.57,598.01 511.28,602.68 509.42,603.39 ZM 798.81 592.67 C798.64,594.69 797.94,596.53 797.25,596.76 C796.31,597.07 796.00,594.80 796.00,587.58 L 796.00 578.00 L 800.93 578.00 C806.24,578.00 809.00,579.74 809.00,583.07 C809.00,585.93 805.41,589.00 802.06,589.00 C799.40,589.00 799.09,589.35 798.81,592.67 ZM 408.81 592.67 C408.64,594.69 407.94,596.53 407.25,596.76 C406.31,597.07 406.00,594.80 406.00,587.58 L 406.00 578.00 L 410.93 578.00 C416.24,578.00 419.00,579.74 419.00,583.07 C419.00,585.93 415.41,589.00 412.06,589.00 C409.40,589.00 409.09,589.35 408.81,592.67 ZM 443.17 591.69 C447.32,596.10 454.00,593.21 454.00,587.00 C454.00,580.97 447.15,577.85 443.00,582.00 C440.38,584.62 440.46,588.79 443.17,591.69 ZM 542.73 592.25 C546.56,596.50 553.00,593.15 553.00,586.90 C553.00,580.34 547.02,577.89 542.36,582.55 C539.57,585.34 539.70,588.89 542.73,592.25 ZM 375.07 591.37 C379.28,596.71 386.00,593.62 386.00,586.33 C386.00,582.90 383.13,580.00 379.73,580.00 C377.34,580.00 373.00,584.39 373.00,586.82 C373.00,587.87 373.93,589.92 375.07,591.37 ZM 491.37 594.93 C489.92,596.07 487.95,597.00 487.00,597.00 C486.05,597.00 484.08,596.07 482.63,594.93 C480.21,593.02 480.00,592.26 480.00,585.43 C480.00,579.59 480.31,578.00 481.46,578.00 C482.57,578.00 482.98,579.69 483.21,585.15 C483.43,590.65 483.90,592.54 485.25,593.39 C486.52,594.19 487.48,594.19 488.75,593.39 C490.10,592.54 490.57,590.65 490.79,585.15 C491.02,579.69 491.43,578.00 492.54,578.00 C493.69,578.00 494.00,579.59 494.00,585.43 C494.00,592.26 493.79,593.02 491.37,594.93 ZM 758.00 580.00 L 758.00 594.00 L 761.44 594.00 C763.87,594.00 765.35,593.34 766.44,591.78 C770.00,586.69 766.91,580.00 761.00,580.00 ZM 463.67 593.33 C464.92,594.59 469.34,594.00 471.17,592.35 C472.33,591.30 473.00,589.30 473.00,586.90 C473.00,582.55 470.33,580.00 465.78,580.00 C463.03,580.00 463.00,580.08 463.00,586.33 C463.00,589.82 463.30,592.97 463.67,593.33 ZM 720.00 580.00 L 720.00 594.00 L 723.00 594.00 C724.67,594.00 726.89,593.11 728.00,592.00 C729.11,590.89 730.00,588.67 730.00,587.00 C730.00,585.33 729.11,583.11 728.00,582.00 C726.89,580.89 724.67,580.00 723.00,580.00 ZM 912.67 593.33 C914.20,594.87 918.94,593.92 920.44,591.78 C924.00,586.69 920.91,580.00 915.00,580.00 L 912.00 580.00 L 912.00 586.33 C912.00,589.82 912.30,592.97 912.67,593.33 ZM 331.06 594.94 C329.93,596.07 328.21,596.97 327.25,596.93 C324.70,596.83 321.20,594.96 320.59,593.37 C319.94,591.69 322.34,591.57 324.88,593.16 C325.90,593.79 327.47,594.03 328.37,593.69 C331.36,592.54 330.05,590.06 325.25,587.77 C317.47,584.05 318.29,578.00 326.59,578.00 C329.86,578.00 331.19,578.48 331.97,579.94 C333.41,582.63 331.42,583.69 329.01,581.51 C326.64,579.37 323.50,579.92 323.50,582.48 C323.50,583.90 324.73,584.86 328.00,585.99 C331.64,587.26 332.56,588.06 332.81,590.22 C333.01,591.89 332.36,593.64 331.06,594.94 ZM 1000.78 595.44 C997.67,597.62 995.56,597.39 992.31,594.53 C990.06,592.55 989.85,592.06 991.26,592.03 C992.23,592.01 993.86,592.52 994.88,593.16 C997.27,594.65 1000.00,593.60 1000.00,591.19 C1000.00,589.87 998.82,588.96 996.02,588.12 C987.68,585.62 988.38,578.00 996.95,578.00 C1001.34,578.00 1004.10,580.31 1002.09,582.29 C1001.13,583.24 1000.58,583.12 999.57,581.75 C998.02,579.65 995.67,579.49 994.11,581.37 C992.73,583.03 993.83,584.10 999.25,586.34 C1002.40,587.65 1003.00,588.38 1003.00,590.89 C1003.00,592.85 1002.23,594.42 1000.78,595.44 ZM 784.73 595.31 C784.30,596.62 775.85,597.52 774.71,596.38 C774.32,595.99 774.00,591.69 774.00,586.83 L 774.00 578.00 L 779.50 578.00 C782.53,578.00 785.00,578.45 785.00,579.00 C785.00,579.55 783.17,580.00 780.93,580.00 C777.09,580.00 776.88,580.15 777.18,582.75 C777.45,585.04 778.04,585.55 780.75,585.81 C782.54,585.99 784.00,586.52 784.00,587.00 C784.00,587.48 782.54,588.01 780.75,588.19 C778.03,588.45 777.50,588.91 777.50,591.00 C777.50,593.17 778.00,593.54 781.31,593.81 C783.70,594.01 784.98,594.57 784.73,595.31 ZM 615.73 595.31 C615.30,596.62 606.85,597.52 605.71,596.38 C605.32,595.99 605.00,591.69 605.00,586.83 L 605.00 578.00 L 610.50 578.00 C613.53,578.00 616.00,578.45 616.00,579.00 C616.00,579.55 614.17,580.00 611.93,580.00 C608.09,580.00 607.88,580.15 608.18,582.75 C608.45,585.04 609.04,585.55 611.75,585.81 C616.15,586.24 615.89,588.00 611.43,588.00 C608.13,588.00 607.89,588.20 608.18,590.75 C608.46,593.15 608.99,593.54 612.31,593.81 C614.70,594.01 615.98,594.57 615.73,595.31 ZM 316.73 595.31 C316.30,596.62 307.85,597.52 306.71,596.38 C306.32,595.99 306.00,591.69 306.00,586.83 L 306.00 578.00 L 311.50 578.00 C314.52,578.00 317.00,578.45 317.00,579.00 C317.00,579.55 315.17,580.00 312.93,580.00 C309.09,580.00 308.88,580.15 309.18,582.75 C309.45,585.04 310.04,585.55 312.75,585.81 C317.15,586.24 316.89,588.00 312.43,588.00 C309.13,588.00 308.89,588.20 309.18,590.75 C309.46,593.15 309.99,593.54 313.31,593.81 C315.70,594.01 316.98,594.57 316.73,595.31 ZM 576.76 595.25 C576.53,595.95 574.28,596.63 571.67,596.80 L 567.00 597.11 L 567.00 578.00 L 572.00 578.00 C574.75,578.00 577.00,578.45 577.00,579.00 C577.00,579.55 575.42,580.00 573.50,580.00 C570.28,580.00 570.00,580.24 570.00,583.00 C570.00,585.67 570.33,586.00 573.00,586.00 C574.65,586.00 576.00,586.45 576.00,587.00 C576.00,587.55 574.65,588.00 573.00,588.00 C570.33,588.00 570.00,588.33 570.00,591.00 C570.00,593.78 570.27,594.00 573.58,594.00 C576.00,594.00 577.03,594.41 576.76,595.25 ZM 646.00 588.50 C646.00,596.30 645.46,598.12 643.67,596.33 C643.30,595.97 643.00,592.14 643.00,587.83 C643.00,580.14 642.95,580.00 640.50,580.00 C639.12,580.00 638.00,579.55 638.00,579.00 C638.00,578.44 640.83,578.00 644.50,578.00 C648.17,578.00 651.00,578.44 651.00,579.00 C651.00,579.55 649.88,580.00 648.50,580.00 C646.03,580.00 646.00,580.10 646.00,588.50 ZM 344.00 587.94 C344.00,595.26 343.25,597.92 341.64,596.31 C341.29,595.95 341.00,592.14 341.00,587.83 C341.00,580.14 340.95,580.00 338.50,580.00 C337.12,580.00 336.00,579.55 336.00,579.00 C336.00,578.44 338.83,578.00 342.50,578.00 C346.17,578.00 349.00,578.44 349.00,579.00 C349.00,579.55 347.88,580.00 346.50,580.00 C344.04,580.00 344.00,580.14 344.00,587.94 ZM 706.76 595.25 C706.53,595.94 704.47,596.64 702.17,596.81 L 698.00 597.11 L 698.00 587.56 C698.00,579.73 698.27,578.00 699.50,578.00 C700.71,578.00 701.00,579.56 701.00,586.00 L 701.00 594.00 L 704.08 594.00 C706.10,594.00 707.02,594.43 706.76,595.25 ZM 693.79 587.17 C693.60,593.00 693.08,596.48 692.34,596.72 C690.49,597.34 690.20,596.02 690.18,586.75 C690.16,578.72 690.32,578.00 692.12,578.00 C693.94,578.00 694.06,578.63 693.79,587.17 ZM 712.79 587.17 C712.59,593.40 712.10,596.47 711.25,596.75 C710.31,597.06 710.00,594.80 710.00,587.58 C710.00,579.63 710.26,578.00 711.54,578.00 C712.83,578.00 713.03,579.46 712.79,587.17 ZM 967.79 587.17 C967.59,593.40 967.10,596.47 966.25,596.75 C965.31,597.06 965.00,594.80 965.00,587.58 C965.00,579.63 965.26,578.00 966.54,578.00 C967.83,578.00 968.03,579.46 967.79,587.17 ZM 834.00 583.50 C834.00,586.49 834.34,587.00 836.30,587.00 C840.46,587.00 842.92,581.95 839.42,580.61 C835.48,579.10 834.00,579.89 834.00,583.50 ZM 950.67 586.33 C952.88,588.54 957.29,586.08 956.84,582.89 C956.57,581.01 955.80,580.43 953.25,580.19 C950.26,579.90 950.00,580.10 950.00,582.77 C950.00,584.36 950.30,585.97 950.67,586.33 ZM 591.71 586.38 C592.86,587.52 596.21,586.63 597.31,584.89 C598.94,582.28 597.41,580.00 594.03,580.00 C591.37,580.00 591.00,580.35 591.00,582.83 C591.00,584.39 591.32,585.99 591.71,586.38 ZM 877.67 586.33 C879.63,588.30 884.39,585.29 883.85,582.43 C883.59,581.08 882.51,580.41 880.24,580.19 C877.26,579.90 877.00,580.11 877.00,582.77 C877.00,584.36 877.30,585.97 877.67,586.33 ZM 676.71 593.38 C677.11,593.77 678.79,593.96 680.46,593.80 C682.96,593.55 683.50,593.05 683.50,591.00 C683.50,588.83 683.00,588.46 679.75,588.19 C676.37,587.91 676.00,588.12 676.00,590.27 C676.00,591.59 676.32,592.99 676.71,593.38 ZM 799.00 583.50 C799.00,586.29 799.39,587.00 800.93,587.00 C802.82,587.00 806.00,584.57 806.00,583.13 C806.00,581.64 803.53,580.00 801.30,580.00 C799.34,580.00 799.00,580.51 799.00,583.50 ZM 409.00 583.50 C409.00,586.29 409.39,587.00 410.93,587.00 C412.82,587.00 416.00,584.57 416.00,583.13 C416.00,581.64 413.53,580.00 411.30,580.00 C409.34,580.00 409.00,580.51 409.00,583.50 ZM 425.00 583.43 C425.00,587.41 427.02,588.18 430.56,585.56 C433.09,583.68 431.44,580.64 427.65,580.18 C425.22,579.89 425.00,580.16 425.00,583.43 ZM 676.67 585.33 C678.02,586.69 681.96,585.94 682.92,584.15 C684.21,581.73 682.50,580.00 678.80,580.00 C676.53,580.00 676.00,580.44 676.00,582.33 C676.00,583.62 676.30,584.97 676.67,585.33 ZM 357.00 589.11 C357.00,589.60 358.36,590.00 360.01,590.00 L 363.03 590.00 L 361.51 586.38 C360.68,584.39 359.98,582.47 359.96,582.13 C359.90,581.21 357.00,588.07 357.00,589.11 ZM 741.00 589.15 C741.00,589.62 742.12,590.00 743.50,590.00 C746.28,590.00 746.51,588.91 744.64,584.51 L 743.36 581.52 L 742.18 584.91 C741.53,586.77 741.00,588.68 741.00,589.15 ZM 895.00 589.15 C895.00,589.62 896.12,590.00 897.50,590.00 C900.28,590.00 900.51,588.91 898.64,584.51 L 897.36 581.52 L 896.18 584.91 C895.53,586.77 895.00,588.68 895.00,589.15 ZM 524.00 589.65 C524.00,589.84 525.31,590.00 526.91,590.00 C529.77,590.00 529.80,589.94 528.74,586.50 C528.15,584.58 527.33,583.00 526.93,583.00 C526.34,583.00 524.00,588.30 524.00,589.65 ZM 659.00 589.65 C659.00,589.84 660.31,590.00 661.91,590.00 C664.77,590.00 664.80,589.94 663.74,586.50 C663.15,584.58 662.33,583.00 661.93,583.00 C661.34,583.00 659.00,588.30 659.00,589.65 ZM 933.00 589.65 C933.00,589.84 934.31,590.00 935.91,590.00 C938.77,590.00 938.80,589.94 937.74,586.50 C937.15,584.58 936.33,583.00 935.93,583.00 C935.34,583.00 933.00,588.30 933.00,589.65 ZM 817.26 586.50 C816.20,589.94 816.23,590.00 819.09,590.00 C819.28,590.00 819.45,590.00 819.62,590.00 C820.84,590.01 821.49,590.01 821.74,589.69 C822.02,589.33 821.74,588.52 821.13,586.79 C821.06,586.59 820.98,586.38 820.90,586.15 C819.49,582.09 818.59,582.17 817.26,586.50 ZM 977.26 586.50 C976.20,589.94 976.23,590.00 979.09,590.00 C979.28,590.00 979.45,590.00 979.62,590.00 C980.84,590.01 981.49,590.01 981.74,589.69 C982.02,589.33 981.74,588.52 981.13,586.79 C981.06,586.59 980.98,586.38 980.90,586.15 C979.49,582.09 978.59,582.17 977.26,586.50 ZM 853.46 587.25 C852.85,589.72 853.05,590.00 855.39,590.00 C858.28,590.00 858.48,589.40 856.96,585.40 C855.80,582.34 854.51,583.02 853.46,587.25 ZM 393.84 597.45 C392.41,600.60 390.55,600.82 391.37,597.75 C391.70,596.51 391.98,594.94 391.99,594.25 C391.99,593.56 392.67,593.00 393.50,593.00 C395.30,593.00 395.38,594.06 393.84,597.45 Z" fill="rgb(5,5,5)"/>
<path d="M 166.00 641.97 C147.93,644.31 126.09,641.53 107.51,634.54 C97.35,630.72 81.02,621.93 71.77,615.31 C55.46,603.64 40.68,586.22 31.34,567.68 C26.37,557.82 20.34,539.12 18.55,528.00 C14.09,500.44 19.59,467.78 33.45,439.50 C41.32,423.45 42.47,422.83 37.43,437.37 C30.21,458.18 27.62,472.42 27.56,491.79 C27.52,502.30 27.88,508.33 28.57,508.79 C29.16,509.18 30.22,512.88 30.94,517.00 C37.68,556.02 67.43,595.55 101.81,611.18 C120.59,619.72 140.94,624.82 159.65,625.68 C171.15,626.22 174.04,626.01 182.65,624.02 C194.74,621.24 207.23,616.90 216.50,612.28 C233.19,603.95 250.86,589.67 259.99,577.13 C262.41,573.80 264.60,571.26 264.83,571.50 C265.07,571.74 263.29,575.38 260.88,579.59 C242.22,612.21 204.55,636.98 166.00,641.97 ZM 401.61 539.52 C395.07,541.47 389.68,541.34 383.20,539.11 C368.64,534.07 360.31,520.08 361.19,502.10 C362.12,482.87 373.29,470.35 390.50,469.23 C399.27,468.66 404.66,470.09 410.47,474.53 C412.97,476.44 415.24,478.00 415.51,478.00 C415.78,478.00 416.00,476.20 416.00,474.00 L 416.00 470.00 L 434.03 470.00 L 433.76 504.75 L 433.50 539.50 L 416.00 540.08 L 416.00 535.54 C416.00,533.04 415.73,531.00 415.41,531.00 C415.08,531.00 412.97,532.59 410.70,534.52 C408.44,536.46 404.35,538.71 401.61,539.52 ZM 759.61 539.52 C744.44,544.03 729.45,536.79 722.30,521.50 C719.77,516.07 719.50,514.46 719.50,504.50 C719.50,494.54 719.77,492.93 722.30,487.50 C727.67,476.02 736.26,470.03 748.50,469.23 C757.27,468.66 762.66,470.09 768.47,474.53 C770.97,476.44 773.24,478.00 773.51,478.00 C773.78,478.00 774.00,476.20 774.00,474.00 L 774.00 470.00 L 782.75 470.00 L 791.50 470.00 L 791.26 503.25 C791.12,521.54 791.01,537.29 791.01,538.25 C791.00,539.78 789.93,540.00 782.50,540.00 L 774.00 540.00 L 774.00 535.50 C774.00,533.03 773.73,531.00 773.41,531.00 C773.08,531.00 770.97,532.59 768.70,534.52 C766.44,536.46 762.35,538.71 759.61,539.52 ZM 306.50 506.50 L 306.50 539.50 L 298.45 539.79 C294.03,539.95 290.09,539.76 289.70,539.37 C289.32,538.98 289.00,519.13 289.00,495.25 L 289.00 451.83 L 311.25 452.17 C332.11,452.48 333.79,452.64 338.19,454.81 C354.46,462.82 357.92,485.16 344.84,497.70 C338.78,503.50 333.00,505.35 319.00,505.96 ZM 217.91 593.53 C213.74,595.99 209.80,598.00 209.16,598.00 C208.29,598.00 208.00,582.07 208.00,534.47 L 208.00 470.95 L 222.25 471.22 L 236.50 471.50 L 237.02 579.96 L 231.26 584.51 C228.09,587.01 222.09,591.07 217.91,593.53 ZM 468.17 517.75 L 467.81 540.00 L 451.00 540.00 L 451.00 470.00 L 468.00 470.00 L 468.00 473.50 C468.00,475.42 468.26,477.00 468.57,477.00 C468.88,477.00 470.60,475.88 472.39,474.52 C482.70,466.65 499.63,467.22 508.38,475.72 C516.26,483.37 516.46,484.27 516.81,513.75 L 517.12 540.00 L 500.16 540.00 L 499.83 517.25 C499.53,496.54 499.32,494.19 497.47,491.00 C491.88,481.39 475.26,481.82 470.41,491.70 C468.79,494.98 468.49,498.52 468.17,517.75 ZM 180.00 607.50 C179.15,607.69 178.38,607.88 177.67,608.05 C174.40,608.82 172.51,609.27 171.43,608.54 C169.94,607.53 169.96,604.32 169.99,596.71 C169.99,595.51 170.00,594.19 170.00,592.75 C170.00,583.81 169.70,561.31 169.34,542.75 L 168.68 509.00 L 198.00 509.00 L 198.00 602.68 L 192.25 604.36 C189.09,605.28 183.57,606.69 180.00,607.50 ZM 693.43 537.11 C683.17,542.16 670.52,541.97 660.20,536.61 C641.43,526.87 636.99,496.11 651.99,479.71 C658.45,472.63 664.78,469.82 675.59,469.22 C690.49,468.39 700.43,473.28 706.65,484.50 C711.79,493.76 711.64,494.00 700.97,494.00 L 691.93 494.00 L 689.85 490.46 C687.18,485.95 683.37,484.00 677.20,484.00 C667.79,484.00 662.06,490.41 661.25,501.83 C660.41,513.71 664.02,521.19 672.16,524.45 C679.20,527.27 688.62,523.93 690.51,517.96 C691.07,516.20 692.08,516.00 700.57,516.00 C706.26,516.00 710.00,516.40 710.00,517.01 C710.00,518.99 705.94,526.62 702.96,530.24 C701.25,532.30 697.09,535.31 693.43,537.11 ZM 588.77 512.30 L 588.50 539.50 L 580.45 539.79 C576.03,539.95 572.09,539.76 571.70,539.37 C571.32,538.98 571.00,526.62 571.00,511.89 L 571.00 485.12 L 563.50 484.50 L 562.91 470.13 L 570.50 469.50 L 571.10 463.50 C571.87,455.82 573.91,451.09 577.91,447.73 C581.67,444.57 589.63,442.00 595.68,442.00 L 600.00 442.00 L 600.00 457.00 L 596.95 457.00 C592.45,457.00 589.00,460.88 589.00,465.95 L 589.00 470.00 L 601.09 470.00 L 600.50 484.50 L 594.77 484.80 L 589.03 485.10 ZM 161.00 538.00 L 161.00 609.00 L 154.75 608.87 C147.03,608.71 135.45,607.40 134.05,606.53 C133.35,606.10 133.00,594.47 133.00,571.94 L 133.00 538.00 ZM 630.00 470.00 L 630.00 540.00 L 621.67 540.00 C617.08,540.00 613.03,539.70 612.67,539.33 C612.30,538.97 612.00,523.22 612.00,504.33 L 612.00 470.00 ZM 551.76 504.75 L 551.50 539.50 L 543.45 539.79 C539.03,539.95 535.09,539.76 534.70,539.37 C534.32,538.98 534.00,523.22 534.00,504.33 L 534.00 470.00 L 552.03 470.00 ZM 747.17 522.85 C757.87,528.15 769.21,522.97 772.62,511.23 C777.16,495.61 765.52,481.37 751.17,484.98 C741.07,487.52 736.41,494.57 737.24,506.08 C737.85,514.62 740.88,519.74 747.17,522.85 ZM 390.50 523.58 C392.15,524.32 395.16,524.94 397.18,524.96 C410.31,525.10 418.74,511.92 414.60,497.70 C412.76,491.36 408.23,486.71 402.28,485.06 C397.63,483.77 397.38,483.77 392.78,485.04 C375.84,489.75 374.26,516.34 390.50,523.58 ZM 126.00 583.00 C126.00,599.16 125.71,603.99 124.75,603.95 C122.90,603.87 106.96,596.75 101.62,593.62 L 97.00 590.92 L 97.00 562.00 L 126.00 562.00 ZM 306.92 491.59 C307.85,492.51 323.74,491.80 326.91,490.69 C332.08,488.88 334.51,484.91 334.45,478.39 C334.40,473.62 333.99,472.53 331.20,469.74 C328.09,466.63 327.76,466.54 317.57,466.16 L 307.12 465.78 L 306.81 478.48 C306.64,485.46 306.69,491.36 306.92,491.59 ZM 547.47 460.58 C543.33,462.31 542.38,462.30 538.31,460.54 C534.98,459.09 532.00,454.58 532.00,451.00 C532.00,445.22 536.91,441.00 543.65,441.00 C548.12,441.00 554.00,446.37 554.00,450.45 C554.00,454.65 551.17,459.03 547.47,460.58 ZM 625.99 460.51 C622.69,462.21 621.49,462.27 618.00,460.88 C613.21,458.96 611.00,455.97 611.00,451.38 C611.00,445.12 614.11,441.89 620.76,441.25 C625.48,440.80 626.16,441.01 628.95,443.80 C634.17,449.02 632.75,457.01 625.99,460.51 Z" fill="rgb(29,35,65)"/>
<path d="M 976.15 539.64 C969.33,541.24 965.12,541.23 958.50,539.59 C947.45,536.85 939.60,530.64 935.12,521.09 C932.79,516.12 932.50,514.28 932.50,504.50 C932.50,494.50 932.75,492.99 935.28,487.84 C938.49,481.31 943.69,476.24 951.21,472.31 C956.04,469.79 957.46,469.54 967.50,469.52 C977.52,469.50 979.00,469.75 984.14,472.27 C990.72,475.50 997.28,482.20 1000.34,488.82 C1003.47,495.59 1003.48,513.38 1000.36,520.12 C995.89,529.78 986.77,537.14 976.15,539.64 ZM 826.00 506.24 L 826.00 540.00 L 818.17 540.00 C813.86,540.00 810.03,539.70 809.67,539.33 C809.30,538.97 809.00,519.13 809.00,495.25 L 809.00 451.83 L 831.25 452.17 C855.26,452.53 855.67,452.62 863.87,458.76 C868.94,462.56 872.49,470.97 872.39,479.00 C872.31,486.66 870.53,491.30 865.59,496.77 C859.72,503.27 853.71,505.29 838.75,505.80 ZM 75.56 593.97 C66.78,586.31 58.78,577.21 52.00,567.27 C57.80,575.60 66.55,586.00 67.85,586.00 C68.23,586.00 69.34,581.59 70.32,576.19 C71.30,570.79 74.03,560.61 76.39,553.55 L 80.67 540.73 L 76.41 536.46 C68.36,528.41 66.11,521.26 68.02,509.81 C69.91,498.47 76.88,482.00 79.79,482.00 C80.66,482.00 85.66,495.06 87.64,502.50 C89.38,509.00 89.34,520.93 87.56,528.49 C86.78,531.79 86.28,534.61 86.43,534.76 C86.58,534.92 87.86,533.34 89.26,531.27 C94.72,523.21 101.12,517.82 110.43,513.44 C115.42,511.09 121.91,508.47 124.85,507.61 L 130.21 506.05 L 129.53 508.77 C128.12,514.47 119.72,530.05 115.97,533.91 C113.83,536.12 109.69,539.17 106.78,540.69 C102.36,543.00 100.24,543.45 93.74,543.47 C87.72,543.49 85.87,543.84 85.52,545.00 C82.78,553.95 78.69,572.37 77.29,582.03 ZM 903.00 517.95 L 902.50 539.50 L 894.45 539.79 C890.03,539.95 886.09,539.76 885.70,539.37 C885.32,538.98 885.00,523.22 885.00,504.33 L 885.00 470.00 L 903.00 470.00 L 903.00 480.15 L 905.71 476.93 C908.78,473.28 917.13,469.02 921.25,469.01 L 924.00 469.00 L 924.00 486.72 L 918.41 487.38 C911.68,488.17 907.62,490.13 905.26,493.72 C903.76,496.00 903.43,499.63 903.00,517.95 ZM 960.02 523.88 C963.70,525.35 971.72,525.20 974.80,523.60 C976.28,522.82 978.49,521.13 979.70,519.83 C987.08,511.94 986.65,495.43 978.88,488.32 C972.09,482.09 961.31,482.68 954.81,489.63 C951.06,493.64 950.00,497.05 950.00,505.10 C950.00,514.81 953.44,521.26 960.02,523.88 ZM 155.58 437.50 C152.64,438.94 147.71,440.38 144.62,440.70 L 139.00 441.28 L 139.02 437.89 C139.05,432.03 141.84,420.94 144.39,416.60 C147.41,411.45 155.41,403.85 160.61,401.21 C165.15,398.89 177.37,395.00 180.08,395.00 C181.85,395.00 181.81,395.42 179.36,402.25 C172.24,422.17 165.00,432.89 155.58,437.50 ZM 122.77 459.75 C119.48,464.84 116.63,469.00 116.44,469.00 C115.69,469.00 111.96,455.54 110.94,449.16 C109.61,440.83 110.27,437.22 114.67,428.83 C118.42,421.67 128.27,410.00 130.56,410.00 C132.78,410.00 133.50,414.56 133.48,428.50 L 133.48 428.78 C133.48,435.00 133.47,438.54 132.62,441.85 C131.49,446.27 128.87,450.29 122.77,459.75 ZM 104.22 489.51 C101.87,495.01 99.13,500.56 98.13,501.86 L 96.32 504.23 L 91.91 494.36 C87.75,485.06 87.50,483.99 87.51,475.50 C87.52,467.35 87.82,465.92 90.68,460.43 C94.79,452.56 102.57,443.94 103.85,445.87 C105.63,448.53 108.30,463.62 108.40,471.51 C108.49,478.84 108.13,480.39 104.22,489.51 ZM 113.79 504.44 C104.97,506.23 100.38,506.42 99.52,505.04 C98.71,503.73 104.38,492.63 109.05,486.37 C114.60,478.94 118.19,477.07 129.21,475.89 C134.32,475.35 140.21,475.26 142.31,475.70 L 146.12 476.51 L 141.93 483.00 C132.10,498.25 127.68,501.62 113.79,504.44 ZM 145.50 468.53 C140.28,470.34 120.08,471.81 118.78,470.47 C117.78,469.44 125.43,458.78 130.56,454.05 C138.09,447.11 142.07,445.64 154.50,445.21 C160.55,445.01 166.54,445.23 167.82,445.72 C170.13,446.59 170.12,446.62 165.63,452.72 C160.30,459.96 152.45,466.12 145.50,468.53 ZM 33.20 527.16 C32.28,523.78 31.52,520.39 30.94,517.00 C30.22,512.88 29.16,509.18 28.57,508.79 C27.88,508.33 27.52,502.30 27.56,491.79 C27.62,472.42 30.21,458.18 37.43,437.37 C39.76,430.66 40.76,427.18 40.40,426.95 C49.22,412.56 61.26,396.71 70.26,388.16 L 73.77 384.83 L 77.09 387.79 L 80.40 390.75 L 70.38 400.63 C52.97,417.79 42.39,434.38 35.57,455.22 C30.37,471.11 28.60,483.76 29.33,499.93 C29.76,509.67 31.02,518.63 33.20,527.16 ZM 826.67 491.33 C827.72,492.39 841.11,492.10 845.31,490.93 C850.19,489.58 852.63,487.11 853.96,482.16 C855.43,476.67 853.54,471.28 849.10,468.29 C846.13,466.29 844.46,466.00 835.85,466.00 L 826.00 466.00 L 826.00 478.33 C826.00,485.12 826.30,490.97 826.67,491.33 ZM 89.67 604.57 C97.40,609.30 106.37,613.48 115.90,616.84 C111.14,615.17 106.43,613.28 101.81,611.18 C97.69,609.30 93.63,607.09 89.67,604.57 ZM 35.01 436.35 C34.52,437.32 34.00,438.37 33.45,439.50 C28.44,449.71 24.53,460.50 21.78,471.41 C24.43,460.82 28.16,450.37 32.90,440.50 C33.55,439.16 34.25,437.78 35.01,436.35 Z" fill="rgb(254,138,0)"/>
<path d="M 0.00 512.00 L 0.00 0.00 L 512.00 0.00 L 1024.00 0.00 L 1024.00 512.00 L 1024.00 1024.00 L 512.00 1024.00 L 0.00 1024.00 L 0.00 512.00 ZM 166.00 641.97 C204.55,636.98 242.22,612.21 260.88,579.59 C263.29,575.38 265.07,571.74 264.83,571.50 C264.60,571.26 262.41,573.80 259.99,577.13 C250.86,589.67 233.19,603.95 216.50,612.28 C207.23,616.90 194.74,621.24 182.65,624.02 C174.04,626.01 171.15,626.22 159.65,625.68 C130.42,624.34 97.23,612.43 78.52,596.59 L 75.55 594.06 L 77.29 582.03 C78.69,572.37 82.78,553.95 85.52,545.00 C85.87,543.84 87.72,543.49 93.74,543.47 C100.24,543.45 102.36,543.00 106.78,540.69 C109.69,539.17 113.83,536.12 115.97,533.91 C119.72,530.05 128.12,514.47 129.53,508.77 L 130.21 506.05 L 124.85 507.61 C121.91,508.47 115.42,511.09 110.43,513.44 C101.12,517.82 94.72,523.21 89.26,531.27 C87.86,533.34 86.58,534.92 86.43,534.76 C86.28,534.61 86.78,531.79 87.56,528.49 C89.34,520.93 89.38,509.00 87.64,502.50 C85.66,495.06 80.66,482.00 79.79,482.00 C76.88,482.00 69.91,498.47 68.02,509.81 C66.11,521.26 68.36,528.41 76.41,536.46 L 80.67 540.73 L 76.39 553.55 C74.03,560.61 71.30,570.79 70.32,576.19 C69.34,581.59 68.23,586.00 67.85,586.00 C66.47,586.00 56.70,574.28 50.97,565.76 C37.00,544.97 30.46,525.05 29.33,499.93 C28.60,483.76 30.37,471.11 35.57,455.22 C42.39,434.38 52.97,417.79 70.38,400.63 L 80.40 390.75 L 77.09 387.79 L 73.77 384.83 L 70.26 388.16 C58.26,399.56 40.88,423.90 32.90,440.50 C19.50,468.37 14.16,500.92 18.55,528.00 C20.34,539.12 26.37,557.82 31.34,567.68 C40.68,586.22 55.46,603.64 71.77,615.31 C81.02,621.93 97.35,630.72 107.51,634.54 C126.09,641.53 147.93,644.31 166.00,641.97 ZM 161.00 573.50 L 161.00 538.00 L 147.00 538.00 L 133.00 538.00 L 133.00 571.94 C133.00,594.47 133.35,606.10 134.05,606.53 C135.45,607.40 147.03,608.71 154.75,608.87 L 161.00 609.00 L 161.00 573.50 ZM 180.00 607.50 C183.57,606.69 189.09,605.28 192.25,604.36 L 198.00 602.68 L 198.00 555.84 L 198.00 509.00 L 183.34 509.00 L 168.68 509.00 L 169.34 542.75 C169.70,561.31 170.00,583.81 170.00,592.75 C170.00,611.31 169.09,609.97 180.00,607.50 ZM 126.00 583.00 L 126.00 562.00 L 111.50 562.00 L 97.00 562.00 L 97.00 576.46 L 97.00 590.92 L 101.62 593.62 C106.96,596.75 122.90,603.87 124.75,603.95 C125.71,603.99 126.00,599.16 126.00,583.00 ZM 509.42 603.39 C511.28,602.68 511.57,598.01 509.75,597.99 C509.06,597.98 509.96,596.83 511.75,595.42 C513.54,594.01 515.00,592.44 515.00,591.93 C515.00,590.47 512.37,590.84 511.00,592.50 C509.26,594.59 504.65,594.37 502.59,592.10 C500.03,589.27 500.21,584.06 502.95,581.84 C505.73,579.59 507.86,579.51 510.78,581.56 C513.75,583.64 515.69,582.42 513.41,579.90 C512.24,578.61 510.35,578.00 507.48,578.00 C496.86,578.00 493.43,589.78 502.48,595.12 C504.42,596.26 506.00,597.83 506.00,598.60 C506.00,599.37 506.70,600.00 507.56,600.00 C508.42,600.00 508.84,600.45 508.50,601.00 C508.16,601.55 506.98,602.00 505.88,602.00 C504.78,602.00 504.16,602.45 504.50,603.00 C505.20,604.13 507.09,604.29 509.42,603.39 ZM 393.84 597.45 C395.38,594.06 395.30,593.00 393.50,593.00 C392.67,593.00 391.99,593.56 391.99,594.25 C391.98,594.94 391.70,596.51 391.37,597.75 C390.55,600.82 392.41,600.60 393.84,597.45 ZM 217.91 593.53 C222.09,591.07 228.09,587.01 231.26,584.51 L 237.02 579.96 L 236.76 525.73 L 236.50 471.50 L 222.25 471.22 L 208.00 470.95 L 208.00 534.47 C208.00,582.07 208.29,598.00 209.16,598.00 C209.80,598.00 213.74,595.99 217.91,593.53 ZM 298.02 595.49 C301.25,593.82 303.00,591.21 303.00,588.07 C303.00,586.25 302.39,586.00 298.00,586.00 C294.32,586.00 293.00,586.38 293.00,587.44 C293.00,588.38 294.30,588.99 296.75,589.19 L 300.50 589.50 L 298.19 591.81 C295.20,594.80 291.34,594.37 288.66,590.75 C286.10,587.32 287.19,583.31 291.27,581.03 C293.78,579.64 294.30,579.66 297.10,581.25 C300.83,583.38 302.82,582.57 300.41,579.90 C299.18,578.54 297.34,578.00 293.93,578.00 C289.85,578.00 288.81,578.44 286.59,581.08 C283.44,584.82 283.28,588.82 286.14,592.45 C289.67,596.94 293.38,597.89 298.02,595.49 ZM 316.73 595.31 C316.98,594.57 315.70,594.01 313.31,593.81 C309.99,593.54 309.46,593.15 309.18,590.75 C308.89,588.20 309.13,588.00 312.43,588.00 C316.89,588.00 317.15,586.24 312.75,585.81 C310.04,585.55 309.45,585.04 309.18,582.75 C308.88,580.15 309.09,580.00 312.93,580.00 C315.17,580.00 317.00,579.55 317.00,579.00 C317.00,578.45 314.52,578.00 311.50,578.00 L 306.00 578.00 L 306.00 586.83 C306.00,591.69 306.32,595.99 306.71,596.38 C307.85,597.52 316.30,596.62 316.73,595.31 ZM 331.06 594.94 C332.36,593.64 333.01,591.89 332.81,590.22 C332.56,588.06 331.64,587.26 328.00,585.99 C324.73,584.86 323.50,583.90 323.50,582.48 C323.50,579.92 326.64,579.37 329.01,581.51 C331.42,583.69 333.41,582.63 331.97,579.94 C331.19,578.48 329.86,578.00 326.59,578.00 C318.29,578.00 317.47,584.05 325.25,587.77 C330.05,590.06 331.36,592.54 328.37,593.69 C327.47,594.03 325.90,593.79 324.88,593.16 C322.34,591.57 319.94,591.69 320.59,593.37 C321.20,594.96 324.70,596.83 327.25,596.93 C328.21,596.97 329.93,596.07 331.06,594.94 ZM 344.00 587.94 C344.00,580.14 344.04,580.00 346.50,580.00 C347.88,580.00 349.00,579.55 349.00,579.00 C349.00,578.44 346.17,578.00 342.50,578.00 C338.83,578.00 336.00,578.44 336.00,579.00 C336.00,579.55 337.12,580.00 338.50,580.00 C340.95,580.00 341.00,580.14 341.00,587.83 C341.00,592.14 341.29,595.95 341.64,596.31 C343.25,597.92 344.00,595.26 344.00,587.94 ZM 354.71 595.00 C355.47,592.10 362.98,592.13 364.79,595.04 C367.70,599.69 367.69,595.35 364.78,586.97 C362.19,579.55 361.30,578.00 359.58,578.01 C357.86,578.01 356.95,579.58 354.37,586.96 C352.65,591.88 351.49,596.16 351.79,596.46 C352.91,597.58 354.20,596.93 354.71,595.00 ZM 386.75 593.45 C389.68,590.12 389.76,584.23 386.93,580.63 C385.21,578.45 384.06,578.01 380.18,578.03 C375.19,578.07 373.03,579.18 371.16,582.68 C369.41,585.97 369.76,589.42 372.14,592.45 C376.23,597.65 382.66,598.09 386.75,593.45 ZM 408.81 592.67 C409.09,589.35 409.40,589.00 412.06,589.00 C415.41,589.00 419.00,585.93 419.00,583.07 C419.00,579.74 416.24,578.00 410.93,578.00 L 406.00 578.00 L 406.00 587.58 C406.00,594.80 406.31,597.07 407.25,596.76 C407.94,596.53 408.64,594.69 408.81,592.67 ZM 424.81 592.67 C425.14,588.78 427.40,587.59 428.45,590.75 C429.51,593.92 432.69,597.31 433.90,596.56 C434.74,596.04 434.48,594.90 432.98,592.47 L 430.90 589.10 L 432.95 587.05 C437.49,582.51 434.48,578.00 426.93,578.00 L 422.00 578.00 L 422.00 587.58 C422.00,594.80 422.31,597.07 423.25,596.76 C423.94,596.53 424.64,594.69 424.81,592.67 ZM 452.02 595.49 C455.65,593.61 457.00,591.18 457.00,586.52 C457.00,581.45 453.40,578.00 448.13,578.00 C442.77,578.00 441.18,578.74 439.46,582.07 C437.10,586.64 437.64,589.84 441.40,593.60 C445.14,597.34 447.60,597.77 452.02,595.49 ZM 473.69 593.57 C476.92,589.82 476.85,583.76 473.55,580.45 C471.53,578.44 470.10,578.00 465.55,578.00 L 460.00 578.00 L 460.00 586.83 C460.00,591.69 460.34,596.01 460.75,596.43 C461.16,596.85 463.72,596.98 466.44,596.72 C470.22,596.37 471.93,595.62 473.69,593.57 ZM 491.37 594.93 C493.79,593.02 494.00,592.26 494.00,585.43 C494.00,579.59 493.69,578.00 492.54,578.00 C491.43,578.00 491.02,579.69 490.79,585.15 C490.57,590.65 490.10,592.54 488.75,593.39 C487.48,594.19 486.52,594.19 485.25,593.39 C483.90,592.54 483.43,590.65 483.21,585.15 C482.98,579.69 482.57,578.00 481.46,578.00 C480.31,578.00 480.00,579.59 480.00,585.43 C480.00,592.26 480.21,593.02 482.63,594.93 C484.08,596.07 486.05,597.00 487.00,597.00 C487.95,597.00 489.92,596.07 491.37,594.93 ZM 521.71 595.00 C522.48,592.05 529.98,592.14 531.84,595.12 C532.67,596.45 533.52,596.88 534.11,596.29 C534.70,595.70 533.87,592.10 531.87,586.62 C529.20,579.28 528.38,577.95 526.69,578.20 C525.17,578.43 523.91,580.61 521.47,587.21 C519.70,592.00 518.49,596.16 518.79,596.46 C519.91,597.58 521.20,596.93 521.71,595.00 ZM 553.75 593.45 C556.79,589.99 556.83,583.51 553.83,580.31 C552.16,578.54 550.57,578.00 547.00,578.00 C540.96,578.00 537.55,581.24 537.55,586.98 C537.55,595.82 547.99,599.99 553.75,593.45 ZM 576.76 595.25 C577.03,594.41 576.00,594.00 573.58,594.00 C570.27,594.00 570.00,593.78 570.00,591.00 C570.00,588.33 570.33,588.00 573.00,588.00 C574.65,588.00 576.00,587.55 576.00,587.00 C576.00,586.45 574.65,586.00 573.00,586.00 C570.33,586.00 570.00,585.67 570.00,583.00 C570.00,580.24 570.28,580.00 573.50,580.00 C575.42,580.00 577.00,579.55 577.00,579.00 C577.00,578.45 574.75,578.00 572.00,578.00 L 567.00 578.00 L 567.00 587.55 L 567.00 597.11 L 571.67 596.80 C574.28,596.63 576.53,595.95 576.76,595.25 ZM 591.00 592.44 C591.00,587.77 593.07,588.01 595.88,593.00 C597.12,595.20 598.52,597.00 599.00,597.00 C600.83,597.00 600.83,595.25 599.02,592.27 C597.18,589.24 597.18,589.15 599.07,587.44 C601.23,585.48 601.63,581.03 599.80,579.20 C599.14,578.54 596.22,578.00 593.30,578.00 L 588.00 578.00 L 588.00 586.83 C588.00,591.69 588.29,595.95 588.64,596.31 C589.92,597.58 591.00,595.81 591.00,592.44 ZM 615.73 595.31 C615.98,594.57 614.70,594.01 612.31,593.81 C608.99,593.54 608.46,593.15 608.18,590.75 C607.89,588.20 608.13,588.00 611.43,588.00 C615.89,588.00 616.15,586.24 611.75,585.81 C609.04,585.55 608.45,585.04 608.18,582.75 C607.88,580.15 608.09,580.00 611.93,580.00 C614.17,580.00 616.00,579.55 616.00,579.00 C616.00,578.45 613.53,578.00 610.50,578.00 L 605.00 578.00 L 605.00 586.83 C605.00,591.69 605.32,595.99 605.71,596.38 C606.85,597.52 615.30,596.62 615.73,595.31 ZM 622.50 590.17 C622.50,586.78 622.78,584.00 623.13,584.00 C623.48,584.00 625.68,586.94 628.02,590.54 C630.37,594.13 632.78,596.91 633.39,596.71 C634.07,596.48 634.61,592.75 634.79,587.17 C635.03,579.46 634.83,578.00 633.54,578.00 C632.33,578.00 632.00,579.27 632.00,584.00 C632.00,587.30 631.66,590.00 631.25,590.00 C630.83,590.00 628.81,587.30 626.74,584.00 C624.19,579.92 622.35,578.00 621.00,578.00 C619.15,578.00 619.00,578.67 619.00,586.83 C619.00,591.69 619.31,595.98 619.69,596.35 C621.46,598.13 622.50,595.83 622.50,590.17 ZM 646.00 588.50 C646.00,580.10 646.03,580.00 648.50,580.00 C649.88,580.00 651.00,579.55 651.00,579.00 C651.00,578.44 648.17,578.00 644.50,578.00 C640.83,578.00 638.00,578.44 638.00,579.00 C638.00,579.55 639.12,580.00 640.50,580.00 C642.95,580.00 643.00,580.14 643.00,587.83 C643.00,592.14 643.30,595.97 643.67,596.33 C645.46,598.12 646.00,596.30 646.00,588.50 ZM 656.71 595.00 C657.48,592.05 664.98,592.14 666.84,595.12 C667.67,596.45 668.52,596.88 669.11,596.29 C669.70,595.70 668.87,592.10 666.87,586.62 C662.64,575.01 661.07,575.10 656.52,587.21 C654.72,592.00 653.49,596.16 653.79,596.46 C654.91,597.58 656.21,596.93 656.71,595.00 ZM 685.47 595.03 C687.42,593.41 687.44,589.61 685.52,588.02 C684.21,586.93 684.21,586.54 685.52,584.67 C687.38,582.02 687.37,581.51 685.43,579.57 C684.39,578.53 682.03,578.00 678.43,578.00 L 673.00 578.00 L 673.00 586.83 C673.00,591.69 673.34,596.01 673.75,596.43 C674.86,597.56 683.69,596.50 685.47,595.03 ZM 693.79 587.17 C694.06,578.63 693.94,578.00 692.12,578.00 C690.32,578.00 690.16,578.72 690.18,586.75 C690.20,596.02 690.49,597.34 692.34,596.72 C693.08,596.48 693.60,593.00 693.79,587.17 ZM 706.76 595.25 C707.02,594.43 706.10,594.00 704.08,594.00 L 701.00 594.00 L 701.00 586.00 C701.00,579.56 700.71,578.00 699.50,578.00 C698.27,578.00 698.00,579.73 698.00,587.56 L 698.00 597.11 L 702.17 596.81 C704.47,596.64 706.53,595.94 706.76,595.25 ZM 712.79 587.17 C713.03,579.46 712.83,578.00 711.54,578.00 C710.26,578.00 710.00,579.63 710.00,587.58 C710.00,594.80 710.31,597.06 711.25,596.75 C712.10,596.47 712.59,593.40 712.79,587.17 ZM 727.36 595.62 C731.39,593.94 733.50,589.47 732.57,584.55 C731.70,579.88 728.74,578.00 722.28,578.00 L 717.00 578.00 L 717.00 586.83 C717.00,591.69 717.30,595.97 717.67,596.33 C718.79,597.45 723.88,597.08 727.36,595.62 ZM 738.71 595.00 C739.13,593.39 740.07,593.00 743.55,593.00 C746.99,593.00 747.99,593.41 748.50,595.00 C749.14,597.00 750.15,597.52 751.26,596.41 C751.59,596.08 750.43,591.80 748.70,586.91 C746.13,579.68 745.16,578.00 743.52,578.00 C741.88,578.01 740.90,579.70 738.34,586.93 C736.60,591.83 735.44,596.10 735.75,596.42 C736.91,597.58 738.20,596.96 738.71,595.00 ZM 765.45 595.58 C769.48,593.90 771.00,591.42 771.00,586.52 C771.00,580.86 767.50,578.00 760.55,578.00 L 755.00 578.00 L 755.00 586.83 C755.00,591.69 755.30,595.97 755.67,596.33 C756.80,597.46 761.89,597.07 765.45,595.58 ZM 784.73 595.31 C784.98,594.57 783.70,594.01 781.31,593.81 C778.00,593.54 777.50,593.17 777.50,591.00 C777.50,588.91 778.03,588.45 780.75,588.19 C782.54,588.01 784.00,587.48 784.00,587.00 C784.00,586.52 782.54,585.99 780.75,585.81 C778.04,585.55 777.45,585.04 777.18,582.75 C776.88,580.15 777.09,580.00 780.93,580.00 C783.17,580.00 785.00,579.55 785.00,579.00 C785.00,578.45 782.53,578.00 779.50,578.00 L 774.00 578.00 L 774.00 586.83 C774.00,591.69 774.32,595.99 774.71,596.38 C775.85,597.52 784.30,596.62 784.73,595.31 ZM 798.81 592.67 C799.09,589.35 799.40,589.00 802.06,589.00 C805.41,589.00 809.00,585.93 809.00,583.07 C809.00,579.74 806.24,578.00 800.93,578.00 L 796.00 578.00 L 796.00 587.58 C796.00,594.80 796.31,597.07 797.25,596.76 C797.94,596.53 798.64,594.69 798.81,592.67 ZM 814.50 595.00 C815.01,593.40 816.01,593.00 819.57,593.00 C822.76,593.00 824.00,593.40 824.00,594.44 C824.00,596.15 825.63,597.35 826.89,596.56 C827.39,596.26 826.33,592.07 824.55,587.26 C822.10,580.62 820.83,578.43 819.31,578.20 C817.62,577.95 816.81,579.28 814.15,586.72 C812.42,591.57 811.00,595.87 811.00,596.27 C811.00,597.91 813.91,596.85 814.50,595.00 ZM 833.81 592.67 C834.14,588.78 836.40,587.59 837.45,590.75 C838.51,593.92 841.69,597.31 842.90,596.56 C843.74,596.04 843.48,594.90 841.98,592.47 L 839.90 589.10 L 841.95 587.05 C846.49,582.51 843.48,578.00 835.93,578.00 L 831.00 578.00 L 831.00 587.58 C831.00,594.80 831.31,597.07 832.25,596.76 C832.94,596.53 833.64,594.69 833.81,592.67 ZM 850.50 595.00 C851.01,593.41 852.01,593.00 855.45,593.00 C859.00,593.00 859.86,593.38 860.32,595.11 C860.85,597.14 863.16,597.45 863.14,595.47 C863.13,594.94 861.87,590.79 860.33,586.25 C858.02,579.44 857.16,578.00 855.44,578.00 C853.70,578.00 852.81,579.53 850.25,586.91 C848.54,591.81 847.42,596.08 847.74,596.41 C848.85,597.52 849.86,597.00 850.50,595.00 ZM 877.00 592.44 C877.00,589.35 877.28,589.00 879.78,589.00 C883.80,589.00 887.00,586.41 887.00,583.14 C887.00,579.16 885.27,578.00 879.30,578.00 L 874.00 578.00 L 874.00 586.83 C874.00,591.69 874.29,595.95 874.64,596.31 C875.92,597.58 877.00,595.81 877.00,592.44 ZM 892.71 595.00 C893.47,592.10 900.98,592.13 902.79,595.04 C905.70,599.69 905.69,595.35 902.78,586.97 C900.19,579.55 899.30,578.00 897.58,578.01 C895.86,578.01 894.95,579.58 892.37,586.96 C890.65,591.88 889.49,596.16 889.79,596.46 C890.91,597.58 892.20,596.93 892.71,595.00 ZM 919.45 595.58 C923.48,593.90 925.00,591.42 925.00,586.52 C925.00,580.86 921.50,578.00 914.55,578.00 L 909.00 578.00 L 909.00 586.83 C909.00,591.69 909.30,595.97 909.67,596.33 C910.80,597.46 915.89,597.07 919.45,595.58 ZM 930.71 595.00 C931.48,592.05 938.98,592.14 940.84,595.12 C941.67,596.45 942.52,596.88 943.11,596.29 C943.70,595.70 942.87,592.10 940.87,586.62 C938.22,579.33 937.37,577.95 935.72,578.20 C934.27,578.42 932.99,580.50 930.93,586.00 C929.38,590.12 928.09,594.29 928.06,595.25 C927.98,597.66 930.07,597.46 930.71,595.00 ZM 950.00 593.00 C950.00,590.28 950.44,589.00 951.37,589.00 C952.12,589.00 953.93,590.80 955.38,593.00 C959.37,599.02 961.74,598.25 958.25,592.06 C957.03,589.90 956.83,588.74 957.60,588.23 C960.01,586.63 960.91,583.45 959.66,580.94 C958.62,578.84 957.64,578.46 952.73,578.20 L 947.00 577.90 L 947.00 586.78 C947.00,591.67 947.30,595.97 947.67,596.33 C949.21,597.88 950.00,596.75 950.00,593.00 ZM 967.79 587.17 C968.03,579.46 967.83,578.00 966.54,578.00 C965.26,578.00 965.00,579.63 965.00,587.58 C965.00,594.80 965.31,597.06 966.25,596.75 C967.10,596.47 967.59,593.40 967.79,587.17 ZM 974.00 595.00 C975.58,592.05 982.23,592.21 984.27,595.25 C987.32,599.79 987.39,595.63 984.40,587.18 C982.04,580.52 980.86,578.43 979.32,578.20 C977.62,577.95 976.81,579.26 974.15,586.55 C972.42,591.31 971.00,595.61 971.00,596.10 C971.00,597.74 972.91,597.03 974.00,595.00 ZM 1000.78 595.44 C1002.23,594.42 1003.00,592.85 1003.00,590.89 C1003.00,588.38 1002.40,587.65 999.25,586.34 C993.83,584.10 992.73,583.03 994.11,581.37 C995.67,579.49 998.02,579.65 999.57,581.75 C1000.58,583.12 1001.13,583.24 1002.09,582.29 C1004.10,580.31 1001.34,578.00 996.95,578.00 C988.38,578.00 987.68,585.62 996.02,588.12 C998.82,588.96 1000.00,589.87 1000.00,591.19 C1000.00,593.60 997.27,594.65 994.88,593.16 C993.86,592.52 992.23,592.01 991.26,592.03 C989.85,592.06 990.06,592.55 992.31,594.53 C995.56,597.39 997.67,597.62 1000.78,595.44 ZM 401.61 539.52 C404.35,538.71 408.44,536.46 410.70,534.52 C412.97,532.59 415.08,531.00 415.41,531.00 C415.73,531.00 416.00,533.04 416.00,535.54 L 416.00 540.08 L 424.75 539.79 L 433.50 539.50 L 433.76 504.75 L 434.03 470.00 L 425.01 470.00 L 416.00 470.00 L 416.00 474.00 C416.00,476.20 415.78,478.00 415.51,478.00 C415.24,478.00 412.97,476.44 410.47,474.53 C404.66,470.09 399.27,468.66 390.50,469.23 C373.29,470.35 362.12,482.87 361.19,502.10 C360.31,520.08 368.64,534.07 383.20,539.11 C389.68,541.34 395.07,541.47 401.61,539.52 ZM 693.43 537.11 C697.09,535.31 701.25,532.30 702.96,530.24 C705.94,526.62 710.00,518.99 710.00,517.01 C710.00,516.40 706.26,516.00 700.57,516.00 C692.08,516.00 691.07,516.20 690.51,517.96 C688.62,523.93 679.20,527.27 672.16,524.45 C664.02,521.19 660.41,513.71 661.25,501.83 C662.06,490.41 667.79,484.00 677.20,484.00 C683.37,484.00 687.18,485.95 689.85,490.46 L 691.93 494.00 L 700.97 494.00 C711.64,494.00 711.79,493.76 706.65,484.50 C700.43,473.28 690.49,468.39 675.59,469.22 C664.78,469.82 658.45,472.63 651.99,479.71 C636.99,496.11 641.43,526.87 660.20,536.61 C670.52,541.97 683.17,542.16 693.43,537.11 ZM 759.61 539.52 C762.35,538.71 766.44,536.46 768.70,534.52 C770.97,532.59 773.08,531.00 773.41,531.00 C773.73,531.00 774.00,533.03 774.00,535.50 L 774.00 540.00 L 782.50 540.00 C789.93,540.00 791.00,539.78 791.01,538.25 C791.01,537.29 791.12,521.54 791.26,503.25 L 791.50 470.00 L 782.75 470.00 L 774.00 470.00 L 774.00 474.00 C774.00,476.20 773.78,478.00 773.51,478.00 C773.24,478.00 770.97,476.44 768.47,474.53 C762.66,470.09 757.27,468.66 748.50,469.23 C736.26,470.03 727.67,476.02 722.30,487.50 C719.77,492.93 719.50,494.54 719.50,504.50 C719.50,514.46 719.77,516.07 722.30,521.50 C729.45,536.79 744.44,544.03 759.61,539.52 ZM 976.15 539.64 C986.77,537.14 995.89,529.78 1000.36,520.12 C1003.48,513.38 1003.47,495.59 1000.34,488.82 C997.28,482.20 990.72,475.50 984.14,472.27 C979.00,469.75 977.52,469.50 967.50,469.52 C957.46,469.54 956.04,469.79 951.21,472.31 C943.69,476.24 938.49,481.31 935.28,487.84 C932.75,492.99 932.50,494.50 932.50,504.50 C932.50,514.28 932.79,516.12 935.12,521.09 C939.60,530.64 947.45,536.85 958.50,539.59 C965.12,541.23 969.33,541.24 976.15,539.64 ZM 306.50 523.00 L 306.50 506.50 L 319.00 505.96 C333.00,505.35 338.78,503.50 344.84,497.70 C357.92,485.16 354.46,462.82 338.19,454.81 C333.79,452.64 332.11,452.48 311.25,452.17 L 289.00 451.83 L 289.00 495.25 C289.00,519.13 289.32,538.98 289.70,539.37 C290.09,539.76 294.03,539.95 298.45,539.79 L 306.50 539.50 L 306.50 523.00 ZM 468.17 517.75 C468.49,498.52 468.79,494.98 470.41,491.70 C475.26,481.82 491.88,481.39 497.47,491.00 C499.32,494.19 499.53,496.54 499.83,517.25 L 500.16 540.00 L 508.64 540.00 L 517.12 540.00 L 516.81 513.75 C516.46,484.27 516.26,483.37 508.38,475.72 C499.63,467.22 482.70,466.65 472.39,474.52 C470.60,475.88 468.88,477.00 468.57,477.00 C468.26,477.00 468.00,475.42 468.00,473.50 L 468.00 470.00 L 459.50 470.00 L 451.00 470.00 L 451.00 505.00 L 451.00 540.00 L 459.40 540.00 L 467.81 540.00 L 468.17 517.75 ZM 551.76 504.75 L 552.03 470.00 L 543.01 470.00 L 534.00 470.00 L 534.00 504.33 C534.00,523.22 534.32,538.98 534.70,539.37 C535.09,539.76 539.03,539.95 543.45,539.79 L 551.50 539.50 L 551.76 504.75 ZM 588.77 512.30 L 589.03 485.10 L 594.77 484.80 L 600.50 484.50 L 600.79 477.25 L 601.09 470.00 L 595.04 470.00 L 589.00 470.00 L 589.00 465.95 C589.00,460.88 592.45,457.00 596.95,457.00 L 600.00 457.00 L 600.00 449.50 L 600.00 442.00 L 595.68 442.00 C589.63,442.00 581.67,444.57 577.91,447.73 C573.91,451.09 571.87,455.82 571.10,463.50 L 570.50 469.50 L 566.71 469.81 L 562.91 470.13 L 563.21 477.31 L 563.50 484.50 L 567.25 484.81 L 571.00 485.12 L 571.00 511.89 C571.00,526.62 571.32,538.98 571.70,539.37 C572.09,539.76 576.03,539.95 580.45,539.79 L 588.50 539.50 L 588.77 512.30 ZM 630.00 505.00 L 630.00 470.00 L 621.00 470.00 L 612.00 470.00 L 612.00 504.33 C612.00,523.22 612.30,538.97 612.67,539.33 C613.03,539.70 617.08,540.00 621.67,540.00 L 630.00 540.00 L 630.00 505.00 ZM 826.00 523.12 L 826.00 506.24 L 838.75 505.80 C853.71,505.29 859.72,503.27 865.59,496.77 C870.53,491.30 872.31,486.66 872.39,479.00 C872.49,470.97 868.94,462.56 863.87,458.76 C855.67,452.62 855.26,452.53 831.25,452.17 L 809.00 451.83 L 809.00 495.25 C809.00,519.13 809.30,538.97 809.67,539.33 C810.03,539.70 813.86,540.00 818.17,540.00 L 826.00 540.00 L 826.00 523.12 ZM 903.00 517.95 C903.43,499.63 903.76,496.00 905.26,493.72 C907.62,490.13 911.68,488.17 918.41,487.38 L 924.00 486.72 L 924.00 477.86 L 924.00 469.00 L 921.25 469.01 C917.13,469.02 908.78,473.28 905.71,476.93 L 903.00 480.15 L 903.00 475.08 L 903.00 470.00 L 894.00 470.00 L 885.00 470.00 L 885.00 504.33 C885.00,523.22 885.32,538.98 885.70,539.37 C886.09,539.76 890.03,539.95 894.45,539.79 L 902.50 539.50 L 903.00 517.95 ZM 113.79 504.44 C127.68,501.62 132.10,498.25 141.93,483.00 L 146.12 476.51 L 142.31 475.70 C140.21,475.26 134.32,475.35 129.21,475.89 C118.19,477.07 114.60,478.94 109.05,486.37 C104.38,492.63 98.71,503.73 99.52,505.04 C100.38,506.42 104.97,506.23 113.79,504.44 ZM 104.22 489.51 C108.13,480.39 108.49,478.84 108.40,471.51 C108.30,463.62 105.63,448.53 103.85,445.87 C102.57,443.94 94.79,452.56 90.68,460.43 C87.82,465.92 87.52,467.35 87.51,475.50 C87.50,483.99 87.75,485.06 91.91,494.36 L 96.32 504.23 L 98.13 501.86 C99.13,500.56 101.87,495.01 104.22,489.51 ZM 145.50 468.53 C152.45,466.12 160.30,459.96 165.63,452.72 C170.12,446.62 170.13,446.59 167.82,445.72 C166.54,445.23 160.55,445.01 154.50,445.21 C142.07,445.64 138.09,447.11 130.56,454.05 C125.43,458.78 117.78,469.44 118.78,470.47 C120.08,471.81 140.28,470.34 145.50,468.53 ZM 122.77 459.75 C133.53,443.07 133.46,443.28 133.48,428.50 C133.50,414.56 132.78,410.00 130.56,410.00 C128.27,410.00 118.42,421.67 114.67,428.83 C110.27,437.22 109.61,440.83 110.94,449.16 C111.96,455.54 115.69,469.00 116.44,469.00 C116.63,469.00 119.48,464.84 122.77,459.75 ZM 547.47 460.58 C551.17,459.03 554.00,454.65 554.00,450.45 C554.00,446.37 548.12,441.00 543.65,441.00 C536.91,441.00 532.00,445.22 532.00,451.00 C532.00,454.58 534.98,459.09 538.31,460.54 C542.38,462.30 543.33,462.31 547.47,460.58 ZM 625.99 460.51 C632.75,457.01 634.17,449.02 628.95,443.80 C626.16,441.01 625.48,440.80 620.76,441.25 C614.11,441.89 611.00,445.12 611.00,451.38 C611.00,455.97 613.21,458.96 618.00,460.88 C621.49,462.27 622.69,462.21 625.99,460.51 ZM 155.58 437.50 C165.00,432.89 172.24,422.17 179.36,402.25 C181.81,395.42 181.85,395.00 180.08,395.00 C177.37,395.00 165.15,398.89 160.61,401.21 C155.41,403.85 147.41,411.45 144.39,416.60 C141.84,420.94 139.05,432.03 139.02,437.89 L 139.00 441.28 L 144.62 440.70 C147.71,440.38 152.64,438.94 155.58,437.50 ZM 357.00 589.11 C357.00,588.07 359.90,581.21 359.96,582.13 C359.98,582.47 360.68,584.39 361.51,586.38 L 363.03 590.00 L 360.01 590.00 C358.36,590.00 357.00,589.60 357.00,589.11 ZM 375.07 591.37 C373.93,589.92 373.00,587.87 373.00,586.82 C373.00,584.39 377.34,580.00 379.73,580.00 C383.13,580.00 386.00,582.90 386.00,586.33 C386.00,593.62 379.28,596.71 375.07,591.37 ZM 409.00 583.50 C409.00,580.51 409.34,580.00 411.30,580.00 C413.53,580.00 416.00,581.64 416.00,583.13 C416.00,584.57 412.82,587.00 410.93,587.00 C409.39,587.00 409.00,586.29 409.00,583.50 ZM 425.00 583.43 C425.00,580.16 425.22,579.89 427.65,580.18 C431.44,580.64 433.09,583.68 430.56,585.56 C427.02,588.18 425.00,587.41 425.00,583.43 ZM 443.17 591.69 C440.46,588.79 440.38,584.62 443.00,582.00 C447.15,577.85 454.00,580.97 454.00,587.00 C454.00,593.21 447.32,596.10 443.17,591.69 ZM 463.67 593.33 C463.30,592.97 463.00,589.82 463.00,586.33 C463.00,580.08 463.03,580.00 465.78,580.00 C470.33,580.00 473.00,582.55 473.00,586.90 C473.00,589.30 472.33,591.30 471.17,592.35 C469.34,594.00 464.92,594.59 463.67,593.33 ZM 524.00 589.65 C524.00,588.30 526.34,583.00 526.93,583.00 C527.33,583.00 528.15,584.58 528.74,586.50 C529.80,589.94 529.77,590.00 526.91,590.00 C525.31,590.00 524.00,589.84 524.00,589.65 ZM 542.73 592.25 C539.70,588.89 539.57,585.34 542.36,582.55 C547.02,577.89 553.00,580.34 553.00,586.90 C553.00,593.15 546.56,596.50 542.73,592.25 ZM 591.71 586.38 C591.32,585.99 591.00,584.39 591.00,582.83 C591.00,580.35 591.37,580.00 594.03,580.00 C597.41,580.00 598.94,582.28 597.31,584.89 C596.21,586.63 592.86,587.52 591.71,586.38 ZM 659.00 589.65 C659.00,588.30 661.34,583.00 661.93,583.00 C662.33,583.00 663.15,584.58 663.74,586.50 C664.80,589.94 664.77,590.00 661.91,590.00 C660.31,590.00 659.00,589.84 659.00,589.65 ZM 676.71 593.38 C676.32,592.99 676.00,591.59 676.00,590.27 C676.00,588.12 676.37,587.91 679.75,588.19 C683.00,588.46 683.50,588.83 683.50,591.00 C683.50,593.05 682.96,593.55 680.46,593.80 C678.79,593.96 677.11,593.77 676.71,593.38 ZM 676.67 585.33 C676.30,584.97 676.00,583.62 676.00,582.33 C676.00,580.44 676.53,580.00 678.80,580.00 C682.50,580.00 684.21,581.73 682.92,584.15 C681.96,585.94 678.02,586.69 676.67,585.33 ZM 720.00 587.00 L 720.00 580.00 L 723.00 580.00 C724.67,580.00 726.89,580.89 728.00,582.00 C729.11,583.11 730.00,585.33 730.00,587.00 C730.00,588.67 729.11,590.89 728.00,592.00 C726.89,593.11 724.67,594.00 723.00,594.00 L 720.00 594.00 L 720.00 587.00 ZM 741.00 589.15 C741.00,588.68 741.53,586.77 742.18,584.91 L 743.36 581.52 L 744.64 584.51 C746.51,588.91 746.28,590.00 743.50,590.00 C742.12,590.00 741.00,589.62 741.00,589.15 ZM 758.00 587.00 L 758.00 580.00 L 761.00 580.00 C766.91,580.00 770.00,586.69 766.44,591.78 C765.35,593.34 763.87,594.00 761.44,594.00 L 758.00 594.00 L 758.00 587.00 ZM 799.00 583.50 C799.00,580.51 799.34,580.00 801.30,580.00 C803.53,580.00 806.00,581.64 806.00,583.13 C806.00,584.57 802.82,587.00 800.93,587.00 C799.39,587.00 799.00,586.29 799.00,583.50 ZM 817.26 586.50 C818.59,582.17 819.49,582.09 820.90,586.15 C822.33,590.24 822.44,590.00 819.09,590.00 C816.23,590.00 816.20,589.94 817.26,586.50 ZM 834.00 583.50 C834.00,579.89 835.48,579.10 839.42,580.61 C842.92,581.95 840.46,587.00 836.30,587.00 C834.34,587.00 834.00,586.49 834.00,583.50 ZM 853.46 587.25 C854.51,583.02 855.80,582.34 856.96,585.40 C858.48,589.40 858.28,590.00 855.39,590.00 C853.05,590.00 852.85,589.72 853.46,587.25 ZM 877.67 586.33 C877.30,585.97 877.00,584.36 877.00,582.77 C877.00,580.11 877.26,579.90 880.24,580.19 C882.51,580.41 883.59,581.08 883.85,582.43 C884.39,585.29 879.63,588.30 877.67,586.33 ZM 895.00 589.15 C895.00,588.68 895.53,586.77 896.18,584.91 L 897.36 581.52 L 898.64 584.51 C900.51,588.91 900.28,590.00 897.50,590.00 C896.12,590.00 895.00,589.62 895.00,589.15 ZM 912.67 593.33 C912.30,592.97 912.00,589.82 912.00,586.33 L 912.00 580.00 L 915.00 580.00 C920.91,580.00 924.00,586.69 920.44,591.78 C918.94,593.92 914.20,594.87 912.67,593.33 ZM 933.00 589.65 C933.00,588.30 935.34,583.00 935.93,583.00 C936.33,583.00 937.15,584.58 937.74,586.50 C938.80,589.94 938.77,590.00 935.91,590.00 C934.31,590.00 933.00,589.84 933.00,589.65 ZM 950.67 586.33 C950.30,585.97 950.00,584.36 950.00,582.77 C950.00,580.10 950.26,579.90 953.25,580.19 C955.80,580.43 956.57,581.01 956.84,582.89 C957.29,586.08 952.88,588.54 950.67,586.33 ZM 977.26 586.50 C978.59,582.17 979.49,582.09 980.90,586.15 C982.33,590.24 982.44,590.00 979.09,590.00 C976.23,590.00 976.20,589.94 977.26,586.50 ZM 390.50 523.58 C374.26,516.34 375.84,489.75 392.78,485.04 C397.38,483.77 397.63,483.77 402.28,485.06 C408.23,486.71 412.76,491.36 414.60,497.70 C418.74,511.92 410.31,525.10 397.18,524.96 C395.16,524.94 392.15,524.32 390.50,523.58 ZM 747.17 522.85 C740.88,519.74 737.85,514.62 737.24,506.08 C736.41,494.57 741.07,487.52 751.17,484.98 C765.52,481.37 777.16,495.61 772.62,511.23 C769.21,522.97 757.87,528.15 747.17,522.85 ZM 960.02 523.88 C953.44,521.26 950.00,514.81 950.00,505.10 C950.00,497.05 951.06,493.64 954.81,489.63 C961.31,482.68 972.09,482.09 978.88,488.32 C986.65,495.43 987.08,511.94 979.70,519.83 C978.49,521.13 976.28,522.82 974.80,523.60 C971.72,525.20 963.70,525.35 960.02,523.88 ZM 306.92 491.59 C306.69,491.36 306.64,485.46 306.81,478.48 L 307.12 465.78 L 317.57 466.16 C327.76,466.54 328.09,466.63 331.20,469.74 C333.99,472.53 334.40,473.62 334.45,478.39 C334.51,484.91 332.08,488.88 326.91,490.69 C323.74,491.80 307.85,492.51 306.92,491.59 ZM 826.67 491.33 C826.30,490.97 826.00,485.12 826.00,478.33 L 826.00 466.00 L 835.85 466.00 C844.46,466.00 846.13,466.29 849.10,468.29 C853.54,471.28 855.43,476.67 853.96,482.16 C852.63,487.11 850.19,489.58 845.31,490.93 C841.11,492.10 827.72,492.39 826.67,491.33 Z" fill="rgb(254,254,254)"/>
</g>
</svg>