<?xml version="1.0" standalone="no"?>
<!DOCTYPE svg PUBLIC "-//W3C//DTD SVG 20010904//EN"
 "http://www.w3.org/TR/2001/REC-SVG-20010904/DTD/svg10.dtd">
<svg version="1.0" xmlns="http://www.w3.org/2000/svg"
 width="6250.000000pt" height="6250.000000pt" viewBox="0 0 6250.000000 6250.000000"
 preserveAspectRatio="xMidYMid meet">

<g transform="translate(0.000000,6250.000000) scale(0.100000,-0.100000)"
fill="#000000" stroke="none">
<path d="M13479 47417 c-795 -1140 -1657 -2747 -2336 -4356 -938 -2222 -1608
-4573 -1972 -6921 -236 -1517 -341 -2878 -341 -4415 0 -879 32 -1560 106
-2255 286 -2709 1166 -5650 2485 -8310 975 -1968 2179 -3767 3563 -5324 326
-367 494 -544 906 -957 684 -685 1172 -1119 1905 -1695 2593 -2038 5362 -3551
8235 -4501 2172 -717 4344 -1109 6575 -1184 385 -13 1396 -7 1725 10 650 35
1285 88 1730 147 1059 139 1958 314 2900 565 2014 537 4369 1554 6295 2717
1637 989 3089 2115 4399 3412 1019 1009 1839 1981 2638 3130 759 1091 1461
2364 1864 3381 42 105 74 192 72 194 -1 2 -32 -47 -67 -108 -699 -1214 -1929
-2715 -3236 -3951 -1491 -1409 -3211 -2647 -5020 -3613 -1975 -1055 -4075
-1848 -6290 -2377 -884 -211 -1580 -346 -2095 -405 -674 -78 -1127 -104 -1845
-104 -813 -1 -1536 42 -2430 144 -2069 236 -4377 775 -6495 1519 -2032 713
-3813 1565 -5152 2462 -864 578 -1996 1533 -3173 2674 -1105 1072 -2147 2282
-3027 3514 -1392 1951 -2444 3986 -3250 6290 -99 283 -277 841 -382 1195 -382
1295 -657 2538 -890 4040 -85 543 -131 1009 -168 1685 -17 307 -17 1510 0
1835 53 1028 140 1870 297 2880 358 2297 1045 4849 1962 7290 162 432 396
1018 527 1320 52 120 94 220 93 221 -1 2 -50 -66 -108 -149z"/>
<path d="M43800 38751 c-69 -21 -121 -65 -156 -131 -22 -41 -20 1291 -16
-13692 l2 -9368 23 0 c148 1 1085 466 1837 912 1172 696 2231 1456 3139 2252
l194 170 -6 2346 c-4 1290 -10 5704 -13 9810 -4 4915 -9 7483 -15 7518 -13 65
-59 128 -119 162 l-45 25 -2400 2 c-1320 1 -2411 -2 -2425 -6z"/>
<path d="M36736 31885 c-53 -19 -85 -44 -121 -94 l-30 -43 -2 -1871 c-1 -1030
3 -5100 10 -9045 11 -6356 14 -7174 27 -7182 23 -15 174 -12 328 5 1201 136
3261 615 4652 1083 l145 49 0 8469 c0 8244 0 8470 -19 8504 -26 49 -64 88
-111 113 l-40 22 -2400 2 c-2043 2 -2406 0 -2439 -12z"/>
<path d="M30092 26601 c-61 -21 -104 -58 -135 -116 l-22 -40 0 -1745 c0 -960
1 -3746 3 -6192 l2 -4447 56 -21 c143 -53 632 -129 1259 -194 591 -62 914 -88
1680 -136 564 -35 1656 -60 1998 -45 l177 7 0 6343 c0 3488 -3 6363 -6 6389
-11 74 -59 146 -124 181 l-55 30 -2390 2 c-2296 2 -2392 2 -2443 -16z"/>
<path d="M23640 22231 c-77 -24 -148 -91 -168 -158 -7 -27 -13 -818 -18 -2618
l-7 -2581 37 -32 c171 -150 935 -584 1756 -996 1029 -517 1902 -891 2715
-1164 217 -73 628 -192 662 -192 11 0 13 623 13 3783 l0 3782 -24 51 c-26 56
-74 98 -133 120 -31 11 -455 13 -2423 13 -1312 -1 -2396 -4 -2410 -8z"/>
</g>
</svg>
