<svg xmlns="http://www.w3.org/2000/svg" viewBox="0 0 300 300">

  <!-- Arco navy em C — de cima-esquerda até baixo-direita -->
  <path d="M 55 48 A 158 158 0 1 1 248 238"
        fill="none" stroke="#1e2d6b" stroke-width="24" stroke-linecap="round"/>

  <!-- Caule -->
  <line x1="115" y1="268" x2="115" y2="42"
        stroke="#f7941d" stroke-width="9" stroke-linecap="round"/>

  <!-- Ponta (grão do topo) -->
  <ellipse cx="115" cy="31" rx="15" ry="24" fill="#f7941d"/>

  <!-- Par 1 — alto -->
  <ellipse cx="88"  cy="74"  rx="28" ry="15" fill="#f7941d" transform="rotate(-38 88 74)"/>
  <ellipse cx="142" cy="67"  rx="28" ry="15" fill="#f7941d" transform="rotate(38 142 67)"/>

  <!-- Par 2 — meio -->
  <ellipse cx="80"  cy="113" rx="30" ry="17" fill="#f7941d" transform="rotate(-40 80 113)"/>
  <ellipse cx="150" cy="106" rx="30" ry="17" fill="#f7941d" transform="rotate(40 150 106)"/>

  <!-- Par 3 — baixo, maior -->
  <ellipse cx="76"  cy="154" rx="32" ry="18" fill="#f7941d" transform="rotate(-42 76 154)"/>
  <ellipse cx="154" cy="147" rx="32" ry="18" fill="#f7941d" transform="rotate(42 154 147)"/>

  <!-- Barras navy crescentes -->
  <rect x="170" y="196" width="26" height="52"  rx="5" fill="#1e2d6b"/>
  <rect x="202" y="164" width="26" height="84"  rx="5" fill="#1e2d6b"/>
  <rect x="234" y="128" width="26" height="120" rx="5" fill="#1e2d6b"/>

</svg>
