<svg xmlns="http://www.w3.org/2000/svg" viewBox="0 0 100 100">
  <!-- Arc -->
  <path d="M 15 80 A 42 42 0 1 1 88 58" fill="none" stroke="#1e3a5f" stroke-width="5" stroke-linecap="round"/>
  <!-- Bar chart -->
  <rect x="48" y="62" width="8" height="18" rx="2" fill="#1e3a5f"/>
  <rect x="60" y="52" width="8" height="28" rx="2" fill="#1e3a5f"/>
  <rect x="72" y="42" width="8" height="38" rx="2" fill="#1e3a5f"/>
  <!-- Wheat stem -->
  <line x1="32" y1="78" x2="32" y2="28" stroke="#f97316" stroke-width="3" stroke-linecap="round"/>
  <!-- Wheat grains left -->
  <ellipse cx="24" cy="58" rx="7" ry="4" fill="#f97316" transform="rotate(-35 24 58)"/>
  <ellipse cx="21" cy="46" rx="7" ry="4" fill="#f97316" transform="rotate(-40 21 46)"/>
  <ellipse cx="22" cy="35" rx="6" ry="3.5" fill="#f97316" transform="rotate(-45 22 35)"/>
  <!-- Wheat grains right -->
  <ellipse cx="40" cy="55" rx="7" ry="4" fill="#f97316" transform="rotate(35 40 55)"/>
  <ellipse cx="42" cy="43" rx="7" ry="4" fill="#f97316" transform="rotate(40 42 43)"/>
  <ellipse cx="40" cy="32" rx="6" ry="3.5" fill="#f97316" transform="rotate(45 40 32)"/>
  <!-- Top tip -->
  <ellipse cx="32" cy="24" rx="4" ry="6" fill="#f97316"/>
</svg>
