<svg xmlns="http://www.w3.org/2000/svg" viewBox="0 0 300 300">

  <!-- Arco branco (fundo escuro da sidebar) -->
  <path d="M 58 52 A 158 158 0 1 1 250 232"
        fill="none" stroke="#ffffff" stroke-width="26" stroke-linecap="round"/>

  <!-- Caule do trigo -->
  <line x1="118" y1="265" x2="118" y2="44"
        stroke="#f7941d" stroke-width="8" stroke-linecap="round"/>

  <!-- Ponta do trigo -->
  <ellipse cx="118" cy="36" rx="13" ry="20" fill="#f7941d"/>

  <!-- Par 1 -->
  <ellipse cx="94"  cy="68"  rx="22" ry="13" fill="#f7941d" transform="rotate(-38 94 68)"/>
  <ellipse cx="142" cy="62"  rx="22" ry="13" fill="#f7941d" transform="rotate(38 142 62)"/>

  <!-- Par 2 -->
  <ellipse cx="86"  cy="102" rx="24" ry="14" fill="#f7941d" transform="rotate(-40 86 102)"/>
  <ellipse cx="150" cy="96"  rx="24" ry="14" fill="#f7941d" transform="rotate(40 150 96)"/>

  <!-- Par 3 -->
  <ellipse cx="82"  cy="138" rx="25" ry="15" fill="#f7941d" transform="rotate(-42 82 138)"/>
  <ellipse cx="154" cy="132" rx="25" ry="15" fill="#f7941d" transform="rotate(42 154 132)"/>

  <!-- Barras brancas -->
  <rect x="170" y="200" width="26" height="48"  rx="4" fill="#ffffff"/>
  <rect x="202" y="168" width="26" height="80"  rx="4" fill="#ffffff"/>
  <rect x="234" y="132" width="26" height="116" rx="4" fill="#ffffff"/>

</svg>
