<svg width="2019" height="648" viewBox="0 0 2019 648" fill="none" xmlns="http://www.w3.org/2000/svg">
<g clip-path="url(#clip0_27_2)">
<path d="M-1.00969 0.984833C469.768 -455.814 1536.54 -457.262 2020.01 0.984833C2503.48 459.232 2491.12 173.047 2018.5 645.046C1545.87 1117.04 482.465 1104.77 -1.00948 646.523C-484.484 188.276 -471.787 457.784 -1.00969 0.984833Z" fill="transparent"/>
<path d="M82.834 140C83.739 141.334 83.3486 141.477 82.834 143.181C82.5353 143.864 82.2367 144.547 81.929 145.251C81.5977 146.026 81.2664 146.801 80.9251 147.6C80.5589 148.443 80.1927 149.287 79.8153 150.156C70.0737 173.334 63.2202 197.281 58.3004 221.862C58.1037 222.839 57.907 223.817 57.7044 224.825C54.909 239.429 53.6049 253.922 53.5683 268.763C53.5643 269.572 53.5602 270.381 53.5561 271.215C53.5403 284.259 54.7728 296.895 56.9754 309.755C57.1795 310.956 57.1795 310.956 57.3877 312.182C58.5411 318.954 58.5411 318.954 60.1301 325.635C60.7963 325.96 61.4626 326.285 62.1491 326.62C62.6654 328.283 62.4728 327.5 63.06 330.486C67.2892 351.994 75.6347 372.412 86.3771 391.617C86.7224 392.25 87.0677 392.883 87.4235 393.535C98.8035 414.369 113.472 434.507 131.044 450.844C132.814 452.675 132.814 452.675 132.814 454.644C133.655 454.978 133.655 454.978 134.514 455.318C137.543 456.997 139.557 459.142 141.963 461.6C147.321 466.958 153.021 471.688 159.061 476.31C160.067 477.111 161.073 477.912 162.109 478.737C208.152 515 283.298 533.866 341.591 527.889C370.028 523.752 398.77 515.367 424.56 502.9C425.308 502.545 426.057 502.191 426.828 501.826C465.504 483.381 501.396 454.625 523.491 418.207C523.824 418.857 524.157 419.507 524.5 420.176C523.695 422.198 523.695 422.198 522.375 424.7C521.887 425.625 521.399 426.551 520.897 427.504C520.358 428.498 519.819 429.492 519.263 430.517C518.714 431.534 518.165 432.551 517.6 433.599C508.417 450.327 497.325 464.955 484.223 478.945C482.37 480.944 480.593 482.984 478.82 485.05C440.043 528.147 376.09 556.011 318.31 560.757C315.698 560.871 313.098 560.951 310.486 561.003C309.509 561.029 308.531 561.054 307.524 561.08C282.29 561.665 258.196 559.341 233.764 553.125C232.668 552.855 232.668 552.855 231.55 552.58C194.492 543.355 160.854 524.547 130.795 501.915C129.762 501.138 128.729 500.361 127.664 499.561C116.846 491.155 106.206 481.881 97.4816 471.386C96.5257 470.29 95.5686 469.195 94.6108 468.101C85.847 457.968 78.3741 447.203 71.2346 435.933C70.7267 435.137 70.2187 434.341 69.6954 433.521C66.0339 427.692 62.8223 421.733 59.8146 415.56C59.1029 414.1 59.1029 414.1 58.3768 412.611C46.7949 388.5 39.4696 364.638 34.8926 338.438C34.6995 337.394 34.5064 336.35 34.3075 335.275C32.5967 325.141 32.5567 315.132 32.6212 304.893C32.6247 303.996 32.6281 303.099 32.6317 302.174C32.6904 289.233 32.8326 276.404 34.8926 263.593C35.1288 262.108 35.0557 262.095 35.3697 260.594C53.5561 173.666 81.929 138.666 82.834 140Z" fill="#FFFFFF"/>
<path d="M810.522 238.634C813.02 240.757 815.449 242.84 817.695 245.216C817.695 245.866 817.695 246.516 817.695 247.185C818.361 247.185 819.028 247.185 819.714 247.185C819.714 241.336 819.714 235.486 819.714 229.459C831.041 229.459 842.367 229.459 854.037 229.459C854.037 273.332 854.037 317.205 854.037 362.407C842.71 362.407 831.384 362.407 819.714 362.407C819.214 353.633 819.214 353.633 818.704 344.681C817.788 345.818 816.872 346.956 815.928 348.128C806.922 358.118 794.784 363.859 781.353 365.362C762.824 366.463 747.747 362.504 733.315 350.801C721.052 339.826 715.218 325.704 711.697 310.213C711.501 309.422 711.304 308.631 711.102 307.816C707.821 287.788 712.815 266.513 724.821 250.14C734.593 237.859 747.587 229.334 763.513 226.785C780.469 225.02 796.987 228.067 810.522 238.634Z" fill="#FFFFFF"/>
<path d="M1513.24 236.353C1522.57 243.728 1522.57 243.728 1524.35 247.185C1524.68 241.336 1525.01 235.486 1525.35 229.459C1536.68 229.459 1548.01 229.459 1559.68 229.459C1559.68 273.332 1559.68 317.205 1559.68 362.407C1548.35 362.407 1537.02 362.407 1525.35 362.407C1524.85 353.633 1524.85 353.633 1524.35 344.681C1523.39 345.839 1522.43 346.996 1521.44 348.189C1512.48 358.09 1500.46 363.959 1486.99 365.362C1468.68 366.326 1453.14 362.593 1438.85 350.767C1425.35 338.335 1417.61 321.284 1417.03 303.273C1416.68 279.734 1420.01 260.349 1437.11 242.577C1457.3 223.617 1490.08 220.518 1513.24 236.353Z" fill="#FFFFFF"/>
<path d="M1953.38 241.277C1966.43 252.196 1976.28 267.732 1977.9 284.708C1978.02 287.902 1978.03 291.076 1977.99 294.271C1977.97 295.966 1977.97 295.966 1977.95 297.694C1977.57 317.056 1971.66 333.111 1957.44 346.87C1953.38 350.603 1949.1 353.729 1944.3 356.498C1943.56 356.949 1942.82 357.4 1942.06 357.864C1925.89 366.833 1903.39 368.116 1885.69 363.365C1867.65 357.559 1853.38 347.53 1844.36 330.894C1842.43 326.696 1840.81 322.449 1839.31 318.091C1838.98 317.246 1838.66 316.4 1838.33 315.529C1833.1 300.195 1835.49 279.919 1842.11 265.273C1851.23 248.095 1864.88 235.812 1883.73 229.459C1907.54 222.711 1933.5 226.69 1953.38 241.277Z" fill="#FFAA55"/>
<path d="M1594 194.006C1689.42 194.006 1689.42 194.006 1707.17 210.644C1718.08 222.447 1720.94 235.896 1720.57 251.321C1719.89 263.169 1714.08 274.648 1705.65 283.1C1698.91 288.895 1691.4 292.828 1682.84 295.441C1681.97 295.708 1681.11 295.975 1680.22 296.251C1669.61 299.093 1659.12 298.724 1648.2 298.58C1638.36 298.488 1638.36 298.488 1628.32 298.395C1628.32 319.844 1628.32 341.293 1628.32 363.392C1617 363.392 1605.67 363.392 1594 363.392C1594 307.495 1594 251.597 1594 194.006Z" fill="#FFAA55"/>
<path d="M569.358 194.006C663.62 194.006 663.62 194.006 681.223 210.463C691.619 221.076 695.977 233.04 695.915 247.599C695.601 260.558 690.297 273.037 681.16 282.454C664.593 297.588 644.671 298.71 623.177 298.518C616.743 298.478 610.31 298.437 603.681 298.395C603.681 319.844 603.681 341.293 603.681 363.392C592.354 363.392 581.028 363.392 569.358 363.392C569.358 307.495 569.358 251.597 569.358 194.006Z" fill="#FFFFFF"/>
<path d="M415.969 231.301C417.601 231.296 417.601 231.296 419.266 231.292C420.45 231.294 421.634 231.296 422.854 231.298C424.06 231.297 425.266 231.296 426.509 231.295C429.065 231.294 431.621 231.296 434.178 231.3C438.106 231.305 442.034 231.3 445.962 231.294C448.439 231.295 450.915 231.296 453.392 231.298C454.576 231.296 455.76 231.294 456.98 231.292C458.068 231.295 459.156 231.298 460.277 231.301C461.24 231.302 462.203 231.303 463.195 231.304C465.379 231.429 465.379 231.429 466.389 232.413C466.517 235.078 466.579 237.719 466.599 240.385C466.609 241.231 466.619 242.076 466.629 242.948C466.662 245.805 466.687 248.662 466.712 251.518C466.733 253.558 466.754 255.597 466.776 257.637C466.966 276.29 467.069 294.943 467.152 313.597C467.214 327.387 467.318 341.177 467.478 354.966C467.586 364.659 467.643 374.351 467.665 384.044C467.679 389.834 467.716 395.622 467.807 401.411C467.893 406.865 467.916 412.316 467.892 417.77C467.894 419.766 467.918 421.763 467.967 423.759C468.334 439.588 468.334 439.588 463.533 444.736C460.359 447.593 456.933 449.81 453.265 452.024C451.673 453.139 450.085 454.259 448.506 455.39C447.091 456.309 445.67 457.218 444.243 458.118C443.479 458.607 442.716 459.095 441.929 459.599C435.099 463.927 428.124 467.94 420.961 471.72C420.117 472.167 419.272 472.614 418.402 473.074C415.371 474.62 413.325 475.66 409.857 475.66C409.834 444.688 409.816 413.717 409.805 382.745C409.804 379.093 409.803 375.44 409.801 371.788C409.801 371.06 409.801 370.333 409.801 369.584C409.796 357.794 409.788 346.004 409.779 334.214C409.77 322.125 409.764 310.036 409.762 297.947C409.76 290.482 409.756 283.016 409.748 275.551C409.742 269.836 409.741 264.121 409.743 258.407C409.742 256.055 409.74 253.704 409.737 251.352C409.732 248.157 409.733 244.962 409.735 241.766C409.733 240.823 409.73 239.879 409.727 238.907C409.745 231.306 409.745 231.306 415.969 231.301Z" fill="#FFFFFF"/>
<path d="M962.81 227.243C964.299 227.256 964.299 227.256 965.817 227.27C981.217 227.511 992.721 230.823 1004.33 241.338C1019.51 257.188 1020.07 276.757 1019.89 297.226C1019.88 299.146 1019.88 301.067 1019.88 302.987C1019.87 307.987 1019.84 312.986 1019.8 317.985C1019.77 323.108 1019.76 328.232 1019.74 333.356C1019.71 343.368 1019.66 353.38 1019.59 363.392C1007.94 363.392 996.275 363.392 984.262 363.392C984.248 360.908 984.233 358.424 984.218 355.864C984.167 347.629 984.1 339.395 984.024 331.16C983.979 326.17 983.94 321.181 983.913 316.191C983.886 311.37 983.845 306.549 983.795 301.728C983.778 299.895 983.766 298.061 983.76 296.228C983.866 278.014 983.866 278.014 974.443 262.861C966.496 256.321 956.843 255.966 946.861 256.771C939.266 257.782 933.823 262.062 929.146 267.751C924.399 274.742 923.55 282.419 923.485 290.61C923.475 291.399 923.465 292.187 923.455 292.999C923.423 295.594 923.398 298.189 923.373 300.784C923.352 302.588 923.331 304.391 923.309 306.195C923.254 310.933 923.204 315.672 923.155 320.411C923.104 325.25 923.048 330.088 922.992 334.927C922.884 344.415 922.782 353.904 922.683 363.392C911.356 363.392 900.03 363.392 888.36 363.392C888.36 319.194 888.36 274.996 888.36 229.459C899.686 229.459 911.013 229.459 922.683 229.459C923.183 236.771 923.183 236.771 923.692 244.231C924.567 243.256 925.441 242.281 926.342 241.277C929.794 237.902 933.607 235.451 937.825 233.09C938.412 232.758 938.998 232.427 939.602 232.084C947.32 227.901 954.175 227.158 962.81 227.243Z" fill="#FFFFFF"/>
<path d="M340.164 303.192C341.766 303.187 341.766 303.187 343.4 303.182C345.143 303.185 345.143 303.185 346.921 303.188C348.697 303.187 348.697 303.187 350.508 303.186C353.017 303.185 355.525 303.187 358.034 303.191C361.889 303.196 365.744 303.191 369.599 303.185C372.03 303.185 374.46 303.186 376.89 303.188C378.633 303.185 378.633 303.185 380.412 303.182C381.479 303.185 382.547 303.189 383.647 303.192C385.065 303.193 385.065 303.193 386.512 303.194C388.657 303.319 388.657 303.319 389.667 304.304C389.766 306.634 389.798 308.934 389.788 311.264C389.789 312.001 389.79 312.738 389.791 313.497C389.793 315.984 389.787 318.472 389.782 320.959C389.781 322.735 389.781 324.511 389.782 326.286C389.782 331.123 389.776 335.959 389.769 340.795C389.763 345.844 389.762 350.892 389.761 355.94C389.758 365.507 389.75 375.074 389.74 384.641C389.728 395.53 389.723 406.418 389.718 417.307C389.707 439.712 389.689 462.118 389.667 484.523C386.435 485.476 383.203 486.426 379.97 487.376C379.06 487.644 378.151 487.913 377.214 488.189C370.829 490.063 364.44 491.784 357.931 493.201C356.643 493.501 356.643 493.501 355.33 493.807C350.342 494.912 345.472 495.554 340.367 495.908C339.198 495.991 338.029 496.074 336.824 496.159C335.498 496.249 335.498 496.249 334.144 496.34C334.121 471.319 334.103 446.298 334.092 421.276C334.087 409.659 334.08 398.042 334.068 386.425C334.058 376.304 334.052 366.182 334.049 356.061C334.048 350.698 334.045 345.335 334.038 339.972C334.031 334.931 334.029 329.89 334.03 324.848C334.03 322.992 334.028 321.136 334.024 319.28C334.019 316.758 334.02 314.235 334.023 311.713C334.02 310.969 334.017 310.224 334.014 309.457C334.032 303.611 334.238 303.197 340.164 303.192Z" fill="#FFFFFF"/>
<path d="M1378.96 239.88C1389.9 248.435 1396.18 259.803 1400.18 272.79C1400.18 273.44 1400.18 274.09 1400.18 274.76C1394.97 275.004 1389.76 275.182 1384.55 275.301C1382.78 275.35 1381.01 275.417 1379.24 275.503C1364.47 276.198 1364.47 276.198 1360.39 272.626C1358.86 270.099 1357.84 267.642 1356.77 264.912C1352.95 260.504 1347.35 257.582 1341.52 256.718C1339.23 256.567 1336.98 256.522 1334.69 256.541C1333.88 256.547 1333.08 256.554 1332.25 256.56C1323.54 256.825 1318.52 259.548 1312.54 265.65C1302.71 277.465 1303.21 292.757 1304.27 307.258C1305.77 316.843 1309.92 324.157 1317.32 330.505C1325.3 335.736 1333.43 335.604 1342.63 334.833C1349.63 333.428 1353.9 330.4 1358.41 325.081C1360.14 322.658 1360.14 322.658 1361.82 318.091C1374.47 318.091 1387.13 318.091 1400.18 318.091C1396.58 328.616 1392.86 338.439 1385.03 346.65C1384.37 346.65 1383.7 346.65 1383.01 346.65C1383.01 347.3 1383.01 347.95 1383.01 348.62C1366.19 362.789 1348.22 366.278 1326.48 365.362C1310.36 364.077 1295.32 356.69 1284.21 345.239C1270.45 329.046 1265.64 309.277 1266.92 288.547C1268.9 269.88 1276.41 252.618 1291.42 240.396C1317.03 221.874 1353.22 221.205 1378.96 239.88Z" fill="#FFFFFF"/>
<path d="M1183.13 175.295C1183.13 184.719 1183.13 194.144 1183.13 203.854C1179.47 204.179 1175.8 204.504 1172.03 204.839C1167.77 206.398 1165.28 207.897 1162.94 211.733C1161.78 215.147 1161.6 218.175 1161.37 221.765C1161.22 223.979 1161.08 226.193 1160.92 228.474C1168.59 228.474 1176.25 228.474 1184.14 228.474C1184.14 237.899 1184.14 247.323 1184.14 257.033C1176.48 257.033 1168.82 257.033 1160.92 257.033C1160.92 292.132 1160.92 327.23 1160.92 363.392C1148.93 363.392 1136.94 363.392 1124.58 363.392C1124.58 328.294 1124.58 293.195 1124.58 257.033C1119.59 257.033 1114.59 257.033 1109.44 257.033C1109.44 247.609 1109.44 238.184 1109.44 228.474C1114.44 228.474 1119.43 228.474 1124.58 228.474C1124.5 226.687 1124.42 224.899 1124.33 223.058C1124.35 210.126 1127.81 197.02 1136.95 187.359C1149.96 175.616 1166.35 174.787 1183.13 175.295Z" fill="#FFFFFF"/>
<path d="M156.473 251.125C158.987 253.31 160.171 255.203 161.35 258.268C161.836 259.518 161.836 259.518 162.332 260.793C162.668 261.685 163.004 262.577 163.35 263.496C163.701 264.416 164.053 265.335 164.415 266.283C167.701 274.949 170.864 283.649 173.634 292.486C173.905 293.343 174.175 294.2 174.454 295.083C179.002 312.737 175.153 333.284 170.408 350.459C169.512 353.331 169.512 353.331 169.596 355.514C170.05 354.809 170.504 354.105 170.972 353.379C176.315 345.305 182.236 338.063 188.777 330.894C189.4 330.202 190.023 329.51 190.665 328.797C206.297 312.451 235.378 302.225 257.423 298.395C255.395 306.402 252.007 313.659 248.315 321.034C247.325 323.021 246.357 325.018 245.391 327.016C235.356 347.515 223.061 361.225 200.772 369.32C196.374 370.779 192.799 371.391 188.13 371.367C186.51 371.362 186.51 371.362 184.857 371.357C183.735 371.349 182.613 371.341 181.458 371.332C179.752 371.325 179.752 371.325 178.011 371.319C175.206 371.307 172.401 371.291 169.596 371.271C164.902 386.567 160.973 401.957 157.482 417.556C157.132 419.096 157.132 419.096 156.775 420.666C153.182 436.607 150.974 452.52 149.406 468.766C145.652 465.671 141.933 462.593 138.491 459.164C137.922 458.601 137.353 458.037 136.768 457.456C136.028 456.717 136.028 456.717 135.273 455.964C134.607 455.314 133.94 454.664 133.254 453.994C133.587 453.669 133.92 453.344 134.264 453.009C134.554 451.353 134.796 449.689 135.021 448.024C137.956 428.744 142.774 410.139 149.201 391.713C149.715 390.233 150.229 388.753 150.742 387.273C151.774 384.305 152.821 381.342 153.878 378.382C154.362 377 154.846 375.618 155.329 374.236C155.561 373.599 155.793 372.962 156.032 372.305C157.167 369.021 157.959 366.646 156.473 363.392C154.651 361.586 154.651 361.586 152.371 359.884C141.917 351.144 133.125 338.084 131.941 324.442C131.86 298.968 138.85 270.638 156.473 251.125Z" fill="#FFAA55"/>
<path d="M267.573 359.325C269.205 359.321 269.205 359.321 270.87 359.316C272.054 359.318 273.238 359.32 274.458 359.322C275.664 359.321 276.87 359.32 278.113 359.319C280.669 359.319 283.225 359.32 285.781 359.324C289.709 359.33 293.637 359.325 297.566 359.318C300.042 359.319 302.519 359.32 304.995 359.322C306.179 359.32 307.363 359.318 308.583 359.316C309.671 359.319 310.759 359.322 311.88 359.325C312.843 359.326 313.806 359.327 314.799 359.328C316.983 359.453 316.983 359.453 317.992 360.438C318.09 362.195 318.115 363.956 318.114 365.716C318.115 366.86 318.116 368.005 318.118 369.185C318.112 371.086 318.112 371.086 318.107 373.025C318.107 374.364 318.107 375.703 318.107 377.042C318.108 380.688 318.102 384.334 318.095 387.98C318.088 391.787 318.088 395.593 318.087 399.399C318.083 406.612 318.075 413.825 318.065 421.037C318.054 429.247 318.048 437.456 318.043 445.665C318.033 462.557 318.015 479.449 317.992 496.34C314.439 496.351 310.886 496.357 307.332 496.363C306.333 496.366 305.333 496.369 304.303 496.372C297.125 496.381 290.061 496.137 282.912 495.479C281.941 495.401 280.971 495.324 279.97 495.244C275.347 494.847 270.87 494.259 266.319 493.361C265.41 493.182 264.5 493.002 263.563 492.818C262.522 492.612 262.522 492.612 261.46 492.401C261.437 475.212 261.419 458.023 261.408 440.835C261.403 432.854 261.396 424.873 261.384 416.893C261.374 409.94 261.368 402.986 261.365 396.033C261.364 392.349 261.361 388.665 261.354 384.981C261.345 380.875 261.345 376.769 261.346 372.663C261.342 371.433 261.338 370.202 261.335 368.935C261.336 367.823 261.337 366.711 261.339 365.566C261.338 364.594 261.337 363.621 261.336 362.62C261.571 358.489 263.877 359.328 267.573 359.325Z" fill="#1F2544"/>
<path d="M1822.15 227.489C1822.15 239.189 1822.15 250.888 1822.15 262.942C1813.13 263.25 1813.13 263.25 1810.34 263.324C1802.07 263.681 1794.27 265.531 1787.82 270.821C1782.01 277.9 1780.46 285.604 1780.44 294.523C1780.42 295.649 1780.42 295.649 1780.41 296.797C1780.37 299.248 1780.36 301.699 1780.34 304.15C1780.32 305.861 1780.3 307.572 1780.28 309.283C1780.23 313.764 1780.19 318.245 1780.15 322.727C1780.1 328.115 1780.04 333.504 1779.98 338.892C1779.89 347.059 1779.82 355.225 1779.75 363.392C1768.42 363.392 1757.1 363.392 1745.43 363.392C1745.43 319.194 1745.43 274.996 1745.43 229.459C1756.75 229.459 1768.08 229.459 1779.75 229.459C1780.25 238.234 1780.25 238.234 1780.76 247.185C1782.07 245.682 1783.38 244.179 1784.73 242.631C1795.5 231.053 1806.15 227.489 1822.15 227.489Z" fill="#FFAA55"/>
<path d="M1052.91 228.474C1064.24 228.474 1075.56 228.474 1087.23 228.474C1087.23 272.997 1087.23 317.52 1087.23 363.392C1075.57 363.392 1063.91 363.392 1051.9 363.392C1051.88 345.946 1051.86 328.501 1051.85 311.055C1051.84 302.955 1051.83 294.855 1051.82 286.756C1051.81 279.698 1051.81 272.641 1051.8 265.584C1051.8 261.845 1051.8 258.106 1051.79 254.367C1051.79 250.852 1051.78 247.336 1051.78 243.821C1051.78 241.908 1051.78 239.994 1051.77 238.081C1051.77 236.953 1051.78 235.825 1051.78 234.662C1051.78 233.675 1051.78 232.689 1051.77 231.672C1051.9 229.459 1051.9 229.459 1052.91 228.474Z" fill="#FFFFFF"/>
<path d="M1207.36 229.459C1218.69 229.459 1230.02 229.459 1241.69 229.459C1241.69 273.657 1241.69 317.855 1241.69 363.392C1230.36 363.392 1219.03 363.392 1207.36 363.392C1207.36 319.194 1207.36 274.996 1207.36 229.459Z" fill="#FFFFFF"/>
<path d="M1504.93 259.549C1513.8 265.148 1520.81 272.422 1523.89 282.49C1524.78 286.648 1524.57 290.902 1524.6 295.133C1524.62 296.074 1524.64 297.016 1524.66 297.985C1524.72 309.322 1520.89 318.249 1513.11 326.647C1505.72 333.561 1495.75 336.222 1485.73 336.091C1476.47 335.18 1468.24 330.839 1462.08 324.115C1452.32 312.011 1451.36 299.617 1452.67 284.608C1454.88 274.641 1461.18 267.039 1469.45 261.019C1479.52 255.195 1494.28 254.427 1504.93 259.549Z" fill="#1e293b"/>
<path d="M799.287 259.549C808.152 265.143 815.175 272.418 818.249 282.483C820.492 292.949 820.431 307.074 815.337 316.61C808.945 325.993 801.344 332.699 789.863 335.456C779.2 337.028 770.102 334.936 761.352 328.678C753.731 322.425 748.073 314.397 746.642 304.605C746.491 301.887 746.469 299.209 746.525 296.487C746.538 295.536 746.55 294.585 746.562 293.605C746.896 281.941 750.466 273.611 758.766 265.223C769.264 255.716 786.211 253.259 799.287 259.549Z" fill="#1e293b"/>
<path d="M1927.23 262.084C1934.79 266.732 1939.66 275.501 1941.83 283.792C1944.06 297.643 1942.62 311.242 1934.45 323.015C1928.47 330.427 1921.46 334.053 1911.99 335.818C1902.73 336.761 1894.11 335.435 1886.44 330.093C1878.74 323.905 1873.12 315.762 1871.8 305.904C1871.71 304.387 1871.65 302.869 1871.61 301.35C1871.54 299.874 1871.54 299.874 1871.46 298.368C1871.08 285.896 1873.52 275.475 1882.21 266.143C1883.05 265.412 1883.88 264.68 1884.74 263.927C1885.44 263.257 1886.15 262.586 1886.88 261.896C1900.42 252.995 1913.52 254.883 1927.23 262.084Z" fill="#1e293b"/>
<path d="M358.372 83.7082C353.798 111.141 337.599 145.61 314.672 162.677C302.993 170.294 287.72 175.296 273.574 174.31C272.697 154.521 276.908 132.664 290.725 117.511C293.036 115.06 295.419 112.682 297.802 110.298C298.405 109.638 299.007 108.978 299.628 108.297C312.736 94.2667 333.151 89.2618 351.306 84.693C352.33 84.4194 352.33 84.4194 353.375 84.1403C355.344 83.7082 355.344 83.7082 358.372 83.7082Z" fill="#FFAA55"/>
<path d="M195.005 405.62C195.972 405.622 196.938 405.625 197.933 405.627C199.04 405.627 200.147 405.627 201.287 405.627C202.459 405.632 203.63 405.637 204.838 405.642C205.908 405.643 206.979 405.644 208.082 405.645C212.099 405.651 216.117 405.664 220.134 405.677C229.108 405.697 238.082 405.718 247.328 405.739C247.328 432.712 247.328 459.686 247.328 487.477C237.596 484.765 229.074 482.05 220.071 477.875C218.938 477.358 217.804 476.84 216.637 476.307C195.656 466.614 195.656 466.614 191.805 462.857C191.705 461.11 191.676 459.358 191.674 457.608C191.671 456.487 191.668 455.367 191.665 454.212C191.667 452.993 191.669 451.773 191.671 450.516C191.67 449.274 191.669 448.032 191.668 446.752C191.667 444.119 191.669 441.487 191.673 438.854C191.679 435.473 191.676 432.091 191.67 428.71C191.665 425.495 191.668 422.279 191.671 419.064C191.669 417.845 191.667 416.625 191.665 415.368C191.668 414.248 191.671 413.127 191.674 411.972C191.675 410.98 191.676 409.988 191.677 408.966C191.846 406.006 191.974 405.784 195.005 405.62Z" fill="#FFFFFF"/>
<path d="M259.441 112.267C259.909 113.866 260.37 115.467 260.829 117.068C261.087 117.96 261.345 118.851 261.61 119.769C268.351 145.891 265.83 172.46 251.775 195.681C233.649 224.806 233.649 224.806 228.147 227.489C225.041 218.289 222.018 209.106 219.755 199.669C219.595 199.002 219.435 198.335 219.269 197.647C214.648 177.727 217.091 162.068 228.024 144.525C249.16 112.267 249.16 112.267 259.441 112.267Z" fill="#FFAA55"/>
<path d="M204.929 180.219C211.994 204.141 219.984 232.93 209.976 257.033C209.705 257.713 209.434 258.392 209.155 259.092C204.255 271.346 198.266 282.923 191.805 294.456C191.139 294.456 190.473 294.456 189.786 294.456C165.047 247.29 165.047 247.29 172.625 223.489C176.4 212.521 190.696 180.219 204.929 180.219Z" fill="#FFAA55"/>
<path d="M287.707 240.292C286.194 245.878 283.304 250.106 280.01 254.818C279.464 255.605 278.919 256.393 278.357 257.205C274.336 262.957 270.155 268.494 265.498 273.775C264.775 274.623 264.051 275.471 263.306 276.345C251.469 289.804 235.34 295.528 217.449 297.252C213.086 297.537 208.731 297.513 204.361 297.472C202.978 297.465 202.978 297.465 201.567 297.458C199.322 297.447 197.078 297.431 194.833 297.41C197.522 278.941 213.959 257.747 228.439 246.37C231.539 244.299 234.651 243.181 238.242 242.261C239.304 241.987 240.366 241.713 241.46 241.43C256.428 238.145 272.553 238.088 287.707 240.292Z" fill="#FFAA55"/>
<path d="M334.145 183.173C332.805 187.943 330.655 191.423 327.52 195.237C327.069 195.793 326.619 196.349 326.155 196.921C324.793 198.586 323.415 200.237 322.031 201.885C321.285 202.778 320.539 203.672 319.771 204.593C305.504 220.877 286.439 229.388 264.698 231.294C253.961 231.941 242.811 232.246 232.185 230.444C233.697 226.179 235.998 222.69 238.684 219.057C239.127 218.456 239.571 217.854 240.028 217.235C244.703 211.022 249.871 205.406 255.404 199.915C256.581 198.713 256.581 198.713 257.781 197.488C278.428 177.751 307.495 177.381 334.145 183.173Z" fill="#FFAA55"/>
<path d="M1628.32 221.581C1633.82 221.54 1639.32 221.499 1644.98 221.457C1646.7 221.44 1648.42 221.422 1650.19 221.403C1651.57 221.397 1652.96 221.392 1654.35 221.388C1655.4 221.373 1655.4 221.373 1656.47 221.358C1664.42 221.355 1671.17 223.142 1677.79 227.489C1683.21 232.928 1685.04 238.159 1685.3 245.585C1685.1 253.445 1682.65 260.327 1676.78 265.897C1669.81 270.119 1663.57 270.972 1655.43 270.917C1654.4 270.915 1654.4 270.915 1653.34 270.914C1650.79 270.909 1648.23 270.895 1645.67 270.882C1639.95 270.862 1634.22 270.842 1628.32 270.821C1628.32 254.571 1628.32 238.322 1628.32 221.581Z" fill="#1e293b"/>
<path d="M603.681 221.581C611.864 221.489 611.864 221.489 620.212 221.396C621.912 221.369 623.612 221.342 625.363 221.314C635.482 221.221 645.434 221.487 653.679 228.009C658.986 233.186 659.613 238.642 659.708 245.708C659.618 253.726 658.174 258.388 652.831 264.727C645.929 270.208 638.578 270.977 630.003 270.917C629.333 270.916 628.664 270.915 627.974 270.914C625.492 270.909 623.009 270.895 620.527 270.882C612.188 270.852 612.188 270.852 603.681 270.821C603.681 254.571 603.681 238.322 603.681 221.581Z" fill="#1e293b"/>
<path d="M145.214 66.0125C148.371 67.3987 150.297 69.5286 152.687 71.9521C153.587 72.8572 154.488 73.7624 155.416 74.6949C156.098 75.3944 156.779 76.0939 157.482 76.8146C155.941 80.5048 153.728 82.4656 150.668 85.0623C144.771 90.1926 139.122 95.5596 133.523 100.996C132.093 102.383 130.658 103.764 129.223 105.144C82.4734 150.677 57.3418 215.407 57.1513 279.325C57.2413 290.667 58.5512 301.801 60.2313 313.014C60.4173 314.267 60.6032 315.52 60.7947 316.81C61.0564 318.468 62.3221 325.263 62.589 326.954C63 331 64.5 333.5 64.5 336.5C55.2603 327.486 52.9357 284.14 52.9214 271.978C53.1246 237.004 60.2109 203.45 71.6745 170.371C72.0471 169.292 72.4198 168.214 72.8037 167.102C81.4465 142.341 93.4677 122.837 110.035 102.419C110.78 101.502 111.524 100.584 112.291 99.6381C117.176 93.7146 122.329 88.0887 127.627 82.5195C129.82 80.1986 131.961 77.8498 134.074 75.4605C135.145 74.2687 136.217 73.0787 137.292 71.8906C137.831 71.2876 138.369 70.6846 138.925 70.0633C142.782 65.9724 142.782 65.9724 145.214 66.0125Z" fill="#FFAA55"/>
<path d="M1235 174.864C1239.96 177.694 1243.9 181.78 1245.72 187.112C1246.68 199.57 1246.68 199.57 1242.69 204.839C1237.19 210.331 1232.29 212.983 1224.27 213.21C1217.5 213.098 1213.19 211.457 1208.37 206.809C1203.9 201.044 1202.49 195.18 1203.32 188.097C1205.19 182.272 1208.34 178.731 1213.42 175.295C1220.06 172.208 1228.22 171.897 1235 174.864Z" fill="#FFFFFF"/>
<path d="M1080.1 174.926C1085.49 177.61 1088.95 181.648 1091.27 187.112C1092.2 193.821 1091.98 199.588 1087.8 205.147C1083.29 209.902 1078.96 212.342 1072.36 212.987C1065.13 213.224 1060.43 212.527 1054.93 207.793C1049.66 202.381 1048.32 197.167 1048.5 189.851C1049.35 183.542 1053 179.607 1058.02 175.787C1064.96 171.664 1072.69 172.086 1080.1 174.926Z" fill="#FFFFFF"/>
<path d="M1873.63 441.191C1875.24 441.131 1876.84 441.07 1878.49 441.007C1879.84 440.955 1879.84 440.955 1881.22 440.903C1883.73 441.191 1883.73 441.191 1885.54 442.496C1887.42 445.051 1887.15 447.008 1886.76 450.055C1885.54 451.705 1885.54 451.705 1883.73 453.009C1881.22 453.298 1881.22 453.298 1878.49 453.194C1876.89 453.133 1875.28 453.072 1873.63 453.009C1873.63 449.109 1873.63 445.209 1873.63 441.191Z" fill="#FFFFFF"/>
<path d="M707.66 444.146C710.587 445.574 710.738 447.401 711.824 450.362C712.18 451.313 712.537 452.264 712.904 453.244C713.717 455.964 713.717 455.964 713.717 459.903C710.052 459.903 706.388 459.903 702.612 459.903C705.586 448.956 705.586 448.956 707.66 444.146Z" fill="#FFFFFF"/>
<path d="M523.931 418.541C524.264 419.191 524.597 419.841 524.94 420.511C523.875 422.986 522.757 425.287 521.47 427.65C521.107 428.32 520.744 428.99 520.37 429.68C517.426 434.84 514.199 438.37 508.788 441.191C510.574 437.244 513.197 433.886 515.791 430.42C518.685 426.546 521.478 422.703 523.931 418.541Z" fill="#FFFFFF"/>
<path d="M523.931 418.541C524.264 419.191 524.597 419.841 524.94 420.511C523.934 422.857 523.934 422.857 522.479 425.558C522.002 426.454 521.524 427.35 521.032 428.274C520.656 428.962 520.28 429.65 519.893 430.359C519.226 430.034 518.56 429.709 517.874 429.374C519.338 425.327 521.418 422.054 523.931 418.541Z" fill="#FFFFFF"/>
<path d="M91.1103 128.189C93.9512 124.843 85.3747 139.265 85.3747 139.265C85.3747 139.265 84.5969 140.705 84.0902 141.724C83.6018 142.718 82.5032 144.476 82 145.5C81.7113 146.088 80.554 147.801 80.1566 148.588C79.7327 147.867 80.5933 147.863 80.1566 147.12C81.1871 143.186 83.7721 143.215 78.6871 146.557C73.6022 149.899 88.2695 131.535 91.1103 128.189Z" fill="#FFFFFF"/>
<path d="M630.321 409.71C629.553 408.302 628.497 407.23 627.153 406.494C625.809 405.758 624.241 405.39 622.449 405.39C620.465 405.39 618.705 405.838 617.169 406.734C615.633 407.63 614.433 408.91 613.569 410.574C612.705 412.238 612.273 414.158 612.273 416.334C612.273 418.574 612.705 420.526 613.569 422.19C614.465 423.854 615.697 425.134 617.265 426.03C618.833 426.926 620.657 427.374 622.737 427.374C625.297 427.374 627.393 426.702 629.025 425.358C630.657 423.982 631.729 422.078 632.241 419.646H620.721V414.51H638.865V420.366C638.417 422.702 637.457 424.862 635.985 426.846C634.513 428.83 632.609 430.43 630.273 431.646C627.969 432.83 625.377 433.422 622.497 433.422C619.265 433.422 616.337 432.702 613.713 431.262C611.121 429.79 609.073 427.758 607.569 425.166C606.097 422.574 605.361 419.63 605.361 416.334C605.361 413.038 606.097 410.094 607.569 407.502C609.073 404.878 611.121 402.846 613.713 401.406C616.337 399.934 619.249 399.198 622.449 399.198C626.225 399.198 629.505 400.126 632.289 401.982C635.073 403.806 636.993 406.382 638.049 409.71H630.321ZM650.557 405.054V413.454H661.837V418.782H650.557V427.662H663.277V433.134H643.837V399.582H663.277V405.054H650.557ZM680.952 433.47C678.616 433.47 676.504 433.07 674.616 432.27C672.76 431.47 671.288 430.318 670.2 428.814C669.112 427.31 668.552 425.534 668.52 423.486H675.72C675.816 424.862 676.296 425.95 677.16 426.75C678.056 427.55 679.272 427.95 680.808 427.95C682.376 427.95 683.608 427.582 684.504 426.846C685.4 426.078 685.848 425.086 685.848 423.87C685.848 422.878 685.544 422.062 684.936 421.422C684.328 420.782 683.56 420.286 682.632 419.934C681.736 419.55 680.488 419.134 678.888 418.686C676.712 418.046 674.936 417.422 673.56 416.814C672.216 416.174 671.048 415.23 670.056 413.982C669.096 412.702 668.616 411.006 668.616 408.894C668.616 406.91 669.112 405.182 670.104 403.71C671.096 402.238 672.488 401.118 674.28 400.35C676.072 399.55 678.12 399.15 680.424 399.15C683.88 399.15 686.68 399.998 688.824 401.694C691 403.358 692.2 405.694 692.424 408.702H685.032C684.968 407.55 684.472 406.606 683.544 405.87C682.648 405.102 681.448 404.718 679.944 404.718C678.632 404.718 677.576 405.054 676.776 405.726C676.008 406.398 675.624 407.374 675.624 408.654C675.624 409.55 675.912 410.302 676.488 410.91C677.096 411.486 677.832 411.966 678.696 412.35C679.592 412.702 680.84 413.118 682.44 413.598C684.616 414.238 686.392 414.878 687.768 415.518C689.144 416.158 690.328 417.118 691.32 418.398C692.312 419.678 692.808 421.358 692.808 423.438C692.808 425.23 692.344 426.894 691.416 428.43C690.488 429.966 689.128 431.198 687.336 432.126C685.544 433.022 683.416 433.47 680.952 433.47ZM721.434 399.63V405.054H712.506V433.134H705.786V405.054H696.858V399.63H721.434ZM746.881 426.75H733.537L731.329 433.134H724.273L736.321 399.582H744.145L756.193 433.134H749.089L746.881 426.75ZM745.057 421.374L740.209 407.358L735.361 421.374H745.057ZM731.569 397.038C731.857 394.926 732.513 393.358 733.537 392.334C734.593 391.278 735.921 390.75 737.521 390.75C738.193 390.75 738.785 390.862 739.297 391.086C739.809 391.278 740.385 391.566 741.025 391.95C741.985 392.558 742.785 392.862 743.425 392.862C744.609 392.862 745.297 392.174 745.489 390.798H749.089C748.801 392.91 748.129 394.494 747.073 395.55C746.049 396.574 744.737 397.086 743.137 397.086C742.465 397.086 741.873 396.99 741.361 396.798C740.849 396.574 740.273 396.27 739.633 395.886C738.705 395.246 737.905 394.926 737.233 394.926C736.049 394.926 735.345 395.63 735.121 397.038H731.569ZM776.248 433.47C773.112 433.47 770.232 432.734 767.608 431.262C764.984 429.79 762.904 427.758 761.368 425.166C759.832 422.542 759.064 419.582 759.064 416.286C759.064 413.022 759.832 410.094 761.368 407.502C762.904 404.878 764.984 402.83 767.608 401.358C770.232 399.886 773.112 399.15 776.248 399.15C779.416 399.15 782.296 399.886 784.888 401.358C787.512 402.83 789.576 404.878 791.08 407.502C792.616 410.094 793.384 413.022 793.384 416.286C793.384 419.582 792.616 422.542 791.08 425.166C789.576 427.758 787.512 429.79 784.888 431.262C782.264 432.734 779.384 433.47 776.248 433.47ZM776.248 427.47C778.264 427.47 780.04 427.022 781.576 426.126C783.112 425.198 784.312 423.886 785.176 422.19C786.04 420.494 786.472 418.526 786.472 416.286C786.472 414.046 786.04 412.094 785.176 410.43C784.312 408.734 783.112 407.438 781.576 406.542C780.04 405.646 778.264 405.198 776.248 405.198C774.232 405.198 772.44 405.646 770.872 406.542C769.336 407.438 768.136 408.734 767.272 410.43C766.408 412.094 765.976 414.046 765.976 416.286C765.976 418.526 766.408 420.494 767.272 422.19C768.136 423.886 769.336 425.198 770.872 426.126C772.44 427.022 774.232 427.47 776.248 427.47ZM805.728 426.078L800.112 439.566H795.792L798.912 426.078H805.728ZM846.441 409.998C846.441 411.79 846.009 413.47 845.145 415.038C844.313 416.606 842.985 417.87 841.161 418.83C839.369 419.79 837.097 420.27 834.345 420.27H828.729V433.134H822.009V399.63H834.345C836.937 399.63 839.145 400.078 840.969 400.974C842.793 401.87 844.153 403.102 845.049 404.67C845.977 406.238 846.441 408.014 846.441 409.998ZM834.057 414.846C835.913 414.846 837.289 414.43 838.185 413.598C839.081 412.734 839.529 411.534 839.529 409.998C839.529 406.734 837.705 405.102 834.057 405.102H828.729V414.846H834.057ZM868.492 433.134L861.1 420.078H857.932V433.134H851.212V399.63H863.788C866.38 399.63 868.588 400.094 870.412 401.022C872.236 401.918 873.596 403.15 874.492 404.718C875.42 406.254 875.884 407.982 875.884 409.902C875.884 412.11 875.244 414.11 873.964 415.902C872.684 417.662 870.78 418.878 868.252 419.55L876.268 433.134H868.492ZM857.932 415.038H863.548C865.372 415.038 866.732 414.606 867.628 413.742C868.524 412.846 868.972 411.614 868.972 410.046C868.972 408.51 868.524 407.326 867.628 406.494C866.732 405.63 865.372 405.198 863.548 405.198H857.932V415.038ZM897.514 433.47C894.378 433.47 891.498 432.734 888.874 431.262C886.25 429.79 884.17 427.758 882.634 425.166C881.098 422.542 880.33 419.582 880.33 416.286C880.33 413.022 881.098 410.094 882.634 407.502C884.17 404.878 886.25 402.83 888.874 401.358C891.498 399.886 894.378 399.15 897.514 399.15C900.682 399.15 903.562 399.886 906.154 401.358C908.778 402.83 910.842 404.878 912.346 407.502C913.882 410.094 914.65 413.022 914.65 416.286C914.65 419.582 913.882 422.542 912.346 425.166C910.842 427.758 908.778 429.79 906.154 431.262C903.53 432.734 900.65 433.47 897.514 433.47ZM897.514 427.47C899.53 427.47 901.306 427.022 902.842 426.126C904.378 425.198 905.578 423.886 906.442 422.19C907.306 420.494 907.738 418.526 907.738 416.286C907.738 414.046 907.306 412.094 906.442 410.43C905.578 408.734 904.378 407.438 902.842 406.542C901.306 405.646 899.53 405.198 897.514 405.198C895.498 405.198 893.706 405.646 892.138 406.542C890.602 407.438 889.402 408.734 888.538 410.43C887.674 412.094 887.242 414.046 887.242 416.286C887.242 418.526 887.674 420.494 888.538 422.19C889.402 423.886 890.602 425.198 892.138 426.126C893.706 427.022 895.498 427.47 897.514 427.47ZM931.361 399.63C934.881 399.63 937.969 400.318 940.625 401.694C943.313 403.07 945.377 405.038 946.817 407.598C948.289 410.126 949.025 413.07 949.025 416.43C949.025 419.79 948.289 422.734 946.817 425.262C945.377 427.758 943.313 429.694 940.625 431.07C937.969 432.446 934.881 433.134 931.361 433.134H919.649V399.63H931.361ZM931.121 427.422C934.641 427.422 937.361 426.462 939.281 424.542C941.201 422.622 942.161 419.918 942.161 416.43C942.161 412.942 941.201 410.222 939.281 408.27C937.361 406.286 934.641 405.294 931.121 405.294H926.369V427.422H931.121ZM960.68 399.63V420.366C960.68 422.638 961.272 424.382 962.456 425.598C963.64 426.782 965.304 427.374 967.448 427.374C969.624 427.374 971.304 426.782 972.488 425.598C973.672 424.382 974.264 422.638 974.264 420.366V399.63H981.032V420.318C981.032 423.166 980.408 425.582 979.16 427.566C977.944 429.518 976.296 430.99 974.216 431.982C972.168 432.974 969.88 433.47 967.352 433.47C964.856 433.47 962.584 432.974 960.536 431.982C958.52 430.99 956.92 429.518 955.736 427.566C954.552 425.582 953.96 423.166 953.96 420.318V399.63H960.68ZM1002.84 427.422C1004.66 427.422 1006.26 427.022 1007.64 426.222C1009.04 425.39 1010.13 424.174 1010.9 422.574H1018.63C1017.64 425.646 1015.92 428.126 1013.49 430.014C1011.09 431.87 1008.26 432.974 1005 433.326V435.294C1006.76 435.294 1008.23 435.742 1009.41 436.638C1010.63 437.534 1011.24 438.83 1011.24 440.526C1011.24 442.254 1010.61 443.582 1009.36 444.51C1008.15 445.438 1006.64 445.902 1004.85 445.902H998.036V441.966H1003.75C1004.52 441.966 1005.09 441.854 1005.48 441.63C1005.89 441.406 1006.1 441.006 1006.1 440.43C1006.1 439.854 1005.89 439.454 1005.48 439.23C1005.09 439.038 1004.52 438.942 1003.75 438.942H1000.77V433.326C997.924 433.006 995.364 432.094 993.092 430.59C990.852 429.054 989.092 427.054 987.812 424.59C986.532 422.126 985.892 419.374 985.892 416.334C985.892 413.038 986.628 410.094 988.1 407.502C989.604 404.878 991.636 402.846 994.196 401.406C996.788 399.934 999.684 399.198 1002.88 399.198C1006.63 399.198 1009.91 400.158 1012.72 402.078C1015.54 403.998 1017.51 406.654 1018.63 410.046H1010.9C1010.13 408.446 1009.04 407.246 1007.64 406.446C1006.26 405.646 1004.66 405.246 1002.84 405.246C1000.88 405.246 999.14 405.71 997.604 406.638C996.1 407.534 994.916 408.814 994.052 410.478C993.22 412.142 992.804 414.094 992.804 416.334C992.804 418.542 993.22 420.494 994.052 422.19C994.916 423.854 996.1 425.15 997.604 426.078C999.14 426.974 1000.88 427.422 1002.84 427.422ZM1044.91 426.75H1031.57L1029.36 433.134H1022.3L1034.35 399.582H1042.18L1054.22 433.134H1047.12L1044.91 426.75ZM1043.09 421.374L1038.24 407.358L1033.39 421.374H1043.09ZM1029.6 397.038C1029.89 394.926 1030.54 393.358 1031.57 392.334C1032.62 391.278 1033.95 390.75 1035.55 390.75C1036.22 390.75 1036.82 390.862 1037.33 391.086C1037.84 391.278 1038.42 391.566 1039.06 391.95C1040.02 392.558 1040.82 392.862 1041.46 392.862C1042.64 392.862 1043.33 392.174 1043.52 390.798H1047.12C1046.83 392.91 1046.16 394.494 1045.1 395.55C1044.08 396.574 1042.77 397.086 1041.17 397.086C1040.5 397.086 1039.9 396.99 1039.39 396.798C1038.88 396.574 1038.3 396.27 1037.66 395.886C1036.74 395.246 1035.94 394.926 1035.26 394.926C1034.08 394.926 1033.38 395.63 1033.15 397.038H1029.6ZM1074.28 433.47C1071.14 433.47 1068.26 432.734 1065.64 431.262C1063.02 429.79 1060.94 427.758 1059.4 425.166C1057.86 422.542 1057.1 419.582 1057.1 416.286C1057.1 413.022 1057.86 410.094 1059.4 407.502C1060.94 404.878 1063.02 402.83 1065.64 401.358C1068.26 399.886 1071.14 399.15 1074.28 399.15C1077.45 399.15 1080.33 399.886 1082.92 401.358C1085.54 402.83 1087.61 404.878 1089.11 407.502C1090.65 410.094 1091.42 413.022 1091.42 416.286C1091.42 419.582 1090.65 422.542 1089.11 425.166C1087.61 427.758 1085.54 429.79 1082.92 431.262C1080.3 432.734 1077.42 433.47 1074.28 433.47ZM1074.28 427.47C1076.3 427.47 1078.07 427.022 1079.61 426.126C1081.14 425.198 1082.34 423.886 1083.21 422.19C1084.07 420.494 1084.5 418.526 1084.5 416.286C1084.5 414.046 1084.07 412.094 1083.21 410.43C1082.34 408.734 1081.14 407.438 1079.61 406.542C1078.07 405.646 1076.3 405.198 1074.28 405.198C1072.26 405.198 1070.47 405.646 1068.9 406.542C1067.37 407.438 1066.17 408.734 1065.3 410.43C1064.44 412.094 1064.01 414.046 1064.01 416.286C1064.01 418.526 1064.44 420.494 1065.3 422.19C1066.17 423.886 1067.37 425.198 1068.9 426.126C1070.47 427.022 1072.26 427.47 1074.28 427.47ZM1114.57 405.054V413.454H1125.85V418.782H1114.57V427.662H1127.29V433.134H1107.85V399.582H1127.29V405.054H1114.57ZM1162.12 433.134L1154.72 420.078H1151.56V433.134H1144.84V399.63H1157.41C1160 399.63 1162.21 400.094 1164.04 401.022C1165.86 401.918 1167.22 403.15 1168.12 404.718C1169.04 406.254 1169.51 407.982 1169.51 409.902C1169.51 412.11 1168.87 414.11 1167.59 415.902C1166.31 417.662 1164.4 418.878 1161.88 419.55L1169.89 433.134H1162.12ZM1151.56 415.038H1157.17C1159 415.038 1160.36 414.606 1161.25 413.742C1162.15 412.846 1162.6 411.614 1162.6 410.046C1162.6 408.51 1162.15 407.326 1161.25 406.494C1160.36 405.63 1159 405.198 1157.17 405.198H1151.56V415.038ZM1182.31 405.054V413.454H1193.59V418.782H1182.31V427.662H1195.03V433.134H1175.59V399.582H1195.03V405.054H1182.31ZM1229.79 433.134H1223.07L1207.85 410.142V433.134H1201.13V399.582H1207.85L1223.07 422.622V399.582H1229.79V433.134ZM1259.23 399.63V405.054H1250.3V433.134H1243.58V405.054H1234.65V399.63H1259.23ZM1284.68 426.75H1271.33L1269.13 433.134H1262.07L1274.12 399.582H1281.94L1293.99 433.134H1286.89L1284.68 426.75ZM1282.85 421.374L1278.01 407.358L1273.16 421.374H1282.85ZM1317.5 415.95C1319.39 416.302 1320.94 417.246 1322.16 418.782C1323.37 420.318 1323.98 422.078 1323.98 424.062C1323.98 425.854 1323.53 427.438 1322.64 428.814C1321.77 430.158 1320.51 431.214 1318.85 431.982C1317.18 432.75 1315.21 433.134 1312.94 433.134H1298.49V399.63H1312.32C1314.59 399.63 1316.54 399.998 1318.17 400.734C1319.84 401.47 1321.09 402.494 1321.92 403.806C1322.78 405.118 1323.21 406.606 1323.21 408.27C1323.21 410.222 1322.69 411.854 1321.63 413.166C1320.61 414.478 1319.23 415.406 1317.5 415.95ZM1305.21 413.454H1311.36C1312.96 413.454 1314.19 413.102 1315.05 412.398C1315.92 411.662 1316.35 410.622 1316.35 409.278C1316.35 407.934 1315.92 406.894 1315.05 406.158C1314.19 405.422 1312.96 405.054 1311.36 405.054H1305.21V413.454ZM1311.98 427.662C1313.61 427.662 1314.88 427.278 1315.77 426.51C1316.7 425.742 1317.17 424.654 1317.17 423.246C1317.17 421.806 1316.69 420.686 1315.73 419.886C1314.77 419.054 1313.47 418.638 1311.84 418.638H1305.21V427.662H1311.98ZM1336.06 399.63V433.134H1329.34V399.63H1336.06ZM1349.42 427.806H1360.46V433.134H1342.7V399.63H1349.42V427.806ZM1371.45 399.63V433.134H1364.73V399.63H1371.45ZM1389.8 399.63C1393.32 399.63 1396.41 400.318 1399.06 401.694C1401.75 403.07 1403.81 405.038 1405.25 407.598C1406.73 410.126 1407.46 413.07 1407.46 416.43C1407.46 419.79 1406.73 422.734 1405.25 425.262C1403.81 427.758 1401.75 429.694 1399.06 431.07C1396.41 432.446 1393.32 433.134 1389.8 433.134H1378.09V399.63H1389.8ZM1389.56 427.422C1393.08 427.422 1395.8 426.462 1397.72 424.542C1399.64 422.622 1400.6 419.918 1400.6 416.43C1400.6 412.942 1399.64 410.222 1397.72 408.27C1395.8 406.286 1393.08 405.294 1389.56 405.294H1384.81V427.422H1389.56ZM1433.04 426.75H1419.69L1417.49 433.134H1410.43L1422.48 399.582H1430.3L1442.35 433.134H1435.25L1433.04 426.75ZM1431.21 421.374L1426.37 407.358L1421.52 421.374H1431.21ZM1458.56 399.63C1462.08 399.63 1465.17 400.318 1467.83 401.694C1470.52 403.07 1472.58 405.038 1474.02 407.598C1475.49 410.126 1476.23 413.07 1476.23 416.43C1476.23 419.79 1475.49 422.734 1474.02 425.262C1472.58 427.758 1470.52 429.694 1467.83 431.07C1465.17 432.446 1462.08 433.134 1458.56 433.134H1446.85V399.63H1458.56ZM1458.32 427.422C1461.84 427.422 1464.56 426.462 1466.48 424.542C1468.4 422.622 1469.36 419.918 1469.36 416.43C1469.36 412.942 1468.4 410.222 1466.48 408.27C1464.56 406.286 1461.84 405.294 1458.32 405.294H1453.57V427.422H1458.32ZM1487.98 405.054V413.454H1499.26V418.782H1487.98V427.662H1500.7V433.134H1481.26V399.582H1500.7V405.054H1487.98ZM1542.68 409.998C1542.68 411.79 1542.24 413.47 1541.38 415.038C1540.55 416.606 1539.22 417.87 1537.4 418.83C1535.6 419.79 1533.33 420.27 1530.58 420.27H1524.96V433.134H1518.24V399.63H1530.58C1533.17 399.63 1535.38 400.078 1537.2 400.974C1539.03 401.87 1540.39 403.102 1541.28 404.67C1542.21 406.238 1542.68 408.014 1542.68 409.998ZM1530.29 414.846C1532.15 414.846 1533.52 414.43 1534.42 413.598C1535.32 412.734 1535.76 411.534 1535.76 409.998C1535.76 406.734 1533.94 405.102 1530.29 405.102H1524.96V414.846H1530.29ZM1567.99 426.75H1554.65L1552.44 433.134H1545.38L1557.43 399.582H1565.25L1577.3 433.134H1570.2L1567.99 426.75ZM1566.17 421.374L1561.32 407.358L1556.47 421.374H1566.17ZM1599.09 433.134L1591.69 420.078H1588.53V433.134H1581.81V399.63H1594.38C1596.97 399.63 1599.18 400.094 1601.01 401.022C1602.83 401.918 1604.19 403.15 1605.09 404.718C1606.01 406.254 1606.48 407.982 1606.48 409.902C1606.48 412.11 1605.84 414.11 1604.56 415.902C1603.28 417.662 1601.37 418.878 1598.85 419.55L1606.86 433.134H1599.09ZM1588.53 415.038H1594.14C1595.97 415.038 1597.33 414.606 1598.22 413.742C1599.12 412.846 1599.57 411.614 1599.57 410.046C1599.57 408.51 1599.12 407.326 1598.22 406.494C1597.33 405.63 1595.97 405.198 1594.14 405.198H1588.53V415.038ZM1633.1 426.75H1619.76L1617.55 433.134H1610.49L1622.54 399.582H1630.36L1642.41 433.134H1635.31L1633.1 426.75ZM1631.28 421.374L1626.43 407.358L1621.58 421.374H1631.28ZM1682.78 409.998C1682.78 411.79 1682.35 413.47 1681.49 415.038C1680.66 416.606 1679.33 417.87 1677.5 418.83C1675.71 419.79 1673.44 420.27 1670.69 420.27H1665.07V433.134H1658.35V399.63H1670.69C1673.28 399.63 1675.49 400.078 1677.31 400.974C1679.14 401.87 1680.5 403.102 1681.39 404.67C1682.32 406.238 1682.78 408.014 1682.78 409.998ZM1670.4 414.846C1672.26 414.846 1673.63 414.43 1674.53 413.598C1675.42 412.734 1675.87 411.534 1675.87 409.998C1675.87 406.734 1674.05 405.102 1670.4 405.102H1665.07V414.846H1670.4ZM1708.1 426.75H1694.76L1692.55 433.134H1685.49L1697.54 399.582H1705.36L1717.41 433.134H1710.31L1708.1 426.75ZM1706.28 421.374L1701.43 407.358L1696.58 421.374H1706.28ZM1733.63 399.63C1737.15 399.63 1740.24 400.318 1742.89 401.694C1745.58 403.07 1747.64 405.038 1749.08 407.598C1750.56 410.126 1751.29 413.07 1751.29 416.43C1751.29 419.79 1750.56 422.734 1749.08 425.262C1747.64 427.758 1745.58 429.694 1742.89 431.07C1740.24 432.446 1737.15 433.134 1733.63 433.134H1721.92V399.63H1733.63ZM1733.39 427.422C1736.91 427.422 1739.63 426.462 1741.55 424.542C1743.47 422.622 1744.43 419.918 1744.43 416.43C1744.43 412.942 1743.47 410.222 1741.55 408.27C1739.63 406.286 1736.91 405.294 1733.39 405.294H1728.64V427.422H1733.39ZM1776.87 426.75H1763.52L1761.31 433.134H1754.26L1766.31 399.582H1774.13L1786.18 433.134H1779.07L1776.87 426.75ZM1775.04 421.374L1770.19 407.358L1765.35 421.374H1775.04ZM1807.96 433.134L1800.57 420.078H1797.4V433.134H1790.68V399.63H1803.26C1805.85 399.63 1808.06 400.094 1809.88 401.022C1811.7 401.918 1813.06 403.15 1813.96 404.718C1814.89 406.254 1815.35 407.982 1815.35 409.902C1815.35 412.11 1814.71 414.11 1813.43 415.902C1812.15 417.662 1810.25 418.878 1807.72 419.55L1815.74 433.134H1807.96ZM1797.4 415.038H1803.02C1804.84 415.038 1806.2 414.606 1807.1 413.742C1807.99 412.846 1808.44 411.614 1808.44 410.046C1808.44 408.51 1807.99 407.326 1807.1 406.494C1806.2 405.63 1804.84 405.198 1803.02 405.198H1797.4V415.038ZM1828.15 399.63V433.134H1821.43V399.63H1828.15ZM1855.33 426.75H1841.99L1839.78 433.134H1832.73L1844.77 399.582H1852.6L1864.65 433.134H1857.54L1855.33 426.75ZM1853.51 421.374L1848.66 407.358L1843.81 421.374H1853.51ZM1880.72 433.47C1878.38 433.47 1876.27 433.07 1874.38 432.27C1872.53 431.47 1871.05 430.318 1869.97 428.814C1868.88 427.31 1868.32 425.534 1868.29 423.486H1875.49C1875.58 424.862 1876.06 425.95 1876.93 426.75C1877.82 427.55 1879.04 427.95 1880.57 427.95C1882.14 427.95 1883.37 427.582 1884.27 426.846C1885.17 426.078 1885.61 425.086 1885.61 423.87C1885.61 422.878 1885.31 422.062 1884.7 421.422C1884.09 420.782 1883.33 420.286 1882.4 419.934C1881.5 419.55 1880.25 419.134 1878.65 418.686C1876.48 418.046 1874.7 417.422 1873.33 416.814C1871.98 416.174 1870.81 415.23 1869.82 413.982C1868.86 412.702 1868.38 411.006 1868.38 408.894C1868.38 406.91 1868.88 405.182 1869.87 403.71C1870.86 402.238 1872.25 401.118 1874.05 400.35C1875.84 399.55 1877.89 399.15 1880.19 399.15C1883.65 399.15 1886.45 399.998 1888.59 401.694C1890.77 403.358 1891.97 405.694 1892.19 408.702H1884.8C1884.73 407.55 1884.24 406.606 1883.31 405.87C1882.41 405.102 1881.21 404.718 1879.71 404.718C1878.4 404.718 1877.34 405.054 1876.54 405.726C1875.77 406.398 1875.39 407.374 1875.39 408.654C1875.39 409.55 1875.68 410.302 1876.25 410.91C1876.86 411.486 1877.6 411.966 1878.46 412.35C1879.36 412.702 1880.61 413.118 1882.21 413.598C1884.38 414.238 1886.16 414.878 1887.53 415.518C1888.91 416.158 1890.09 417.118 1891.09 418.398C1892.08 419.678 1892.57 421.358 1892.57 423.438C1892.57 425.23 1892.11 426.894 1891.18 428.43C1890.25 429.966 1888.89 431.198 1887.1 432.126C1885.31 433.022 1883.18 433.47 1880.72 433.47Z" fill="#FFFFFF"/>
</g>
<defs>
<clipPath id="clip0_27_2">
<rect width="2019" height="648" fill="white"/>
</clipPath>
</defs>
</svg>
